<svg width="66" height="32" viewBox="0 0 66 32" fill="none" xmlns="http://www.w3.org/2000/svg">
<g clip-path="url(#clip0)">
<path d="M60.1287 5.47111C60.4175 4.26247 59.8303 3.13466 59.2186 2.22043C58.5451 1.21392 57.4199 0.321488 56.163 0C56.3907 1.14069 57.0552 2.1248 57.6952 3.05027C58.3308 3.96956 59.1323 4.90076 60.1287 5.47111Z" fill="#868C98"/>
<path d="M6.10791 2.21922C5.49508 3.13293 4.90672 4.2603 5.19472 5.46916C6.19156 4.89963 6.99417 3.96903 7.63052 3.05018C8.27119 2.12531 8.93679 1.14156 9.16518 0.00109863C7.9081 0.321694 6.78252 1.2133 6.10791 2.21922Z" fill="#868C98"/>
<path d="M4.3177 7.78801C4.54251 6.83069 4.53753 5.78265 4.3235 4.88472C4.1353 4.09558 3.86144 2.98005 2.96008 2.60364C2.3049 3.65458 2.04153 5.08572 2.42337 6.15809C2.69947 6.93376 3.19598 7.95932 4.22571 8.11806C5.17061 8.33588 6.12607 7.83184 6.88067 7.41569C7.71974 6.95303 8.54162 6.21696 9.04097 5.34187C8.12495 4.87951 7.08175 5.25473 6.29693 5.61432C5.45094 6.00196 4.67379 6.83366 4.3177 7.78801Z" fill="#868C98"/>
<path d="M22.6553 3.90131V8.70771H21.0144V6.96274H18.553V8.70771H16.9121V3.90131H18.553V5.65245H21.0144V3.90131H22.6553Z" fill="#868C98"/>
<path d="M28.0965 3.90131H29.9088L27.3373 7.12192V8.70771H25.6903V7.12802L23.1493 3.90131H25.0167L26.5352 5.82384L28.0965 3.90131Z" fill="#868C98"/>
<path fill-rule="evenodd" clip-rule="evenodd" d="M36.1319 5.63407C36.1319 5.00345 35.9483 4.56869 35.6237 4.3115C35.3115 4.036 34.8094 3.90131 34.1482 3.90131H30.4193V8.70771H32.0664V7.36073C32.0664 7.36073 33.9522 7.36683 34.1726 7.36073C34.8829 7.35455 35.4278 7.18317 35.7584 6.80356C36.0033 6.53409 36.1319 6.14838 36.1319 5.63407ZM34.4788 5.65855C34.4788 5.81163 34.4543 5.92185 34.4053 6.00758C34.3073 6.16065 34.1053 6.24021 33.7624 6.24021H32.0542V5.06462H33.7747C34.093 5.06462 34.289 5.13814 34.3931 5.29122C34.4481 5.36467 34.4788 5.49937 34.4788 5.65855Z" fill="#868C98"/>
<path d="M41.8508 7.51373V8.70771H36.7874V3.90131H41.8084V5.10138H38.4037V5.7198H41.7101V6.88921H38.4037V7.51373H41.8508Z" fill="#868C98"/>
<path fill-rule="evenodd" clip-rule="evenodd" d="M48.323 5.36467C48.323 4.92992 48.2195 4.61766 47.9985 4.39113C47.7113 4.08497 47.2149 3.90131 46.4558 3.90131H42.6292V8.70771H44.2642V7.01171H45.7518L46.9455 8.70771H48.7702L47.3191 6.74841C47.6435 6.69944 47.907 6.5035 48.0781 6.27087C48.2315 6.05654 48.323 5.73818 48.323 5.36467ZM46.7312 5.51775C46.7312 5.59731 46.7193 5.69532 46.6761 5.76877C46.6151 5.89126 46.4558 5.94023 46.1924 5.94023H44.2701V5.06462H46.1619C46.4194 5.06462 46.5905 5.10748 46.6761 5.26666C46.7193 5.32791 46.7312 5.42592 46.7312 5.51775Z" fill="#868C98"/>
<path d="M40.9741 14.7362C40.9741 13.6375 40.2761 13.0601 38.6481 12.8837C38.3835 12.8516 37.6056 12.7714 37.1164 12.7312C35.8573 12.5949 35.4804 12.5228 35.4804 12.202C35.4804 11.9133 35.7771 11.777 36.9078 11.777C37.7098 11.777 38.159 11.9293 38.3353 12.1619C38.4236 12.2742 38.4557 12.3624 38.4637 12.4506H40.7734C40.7492 12.2581 40.6691 11.9854 40.5407 11.7449C40.1238 10.9429 39.1213 10.3013 36.964 10.3013C34.534 10.3013 33.2028 11.1595 33.2028 12.2822C33.2028 13.3648 33.9566 13.9984 35.9936 14.1829C36.2287 14.203 36.7392 14.2512 37.1486 14.2899L37.1531 14.2904L37.1549 14.2905L37.373 14.3112C38.4396 14.4235 38.7283 14.4956 38.7283 14.8325C38.7283 15.1452 38.4476 15.3136 37.2688 15.3136C36.3545 15.3136 35.8172 15.1772 35.6247 14.9447C35.5446 14.8485 35.4884 14.7041 35.4724 14.6079H33.1627C33.1868 14.7682 33.2269 15.0249 33.3151 15.2334C33.7081 16.1156 34.7346 16.7892 37.1164 16.7892C39.6746 16.7892 40.9741 16.0674 40.9741 14.7362Z" fill="#868C98"/>
<path fill-rule="evenodd" clip-rule="evenodd" d="M24.9613 14.9126C24.9613 15.3456 24.8411 15.7707 24.6005 16.0514C24.2316 16.5004 23.5419 16.693 22.6517 16.693H17.062V10.3975H22.4993C23.3654 10.3975 23.9188 10.606 24.2235 10.9188C24.4962 11.1915 24.6165 11.5524 24.6165 11.9614C24.6165 12.3704 24.5202 12.7072 24.3117 12.9558C24.1433 13.1643 23.8546 13.3247 23.5499 13.3648C23.9989 13.4209 24.424 13.6454 24.6646 13.9582C24.8651 14.1908 24.9613 14.5437 24.9613 14.9126ZM22.2587 12.7072C22.3389 12.619 22.387 12.4907 22.387 12.3383C22.387 12.1859 22.3389 12.0576 22.2346 11.9694C22.1224 11.8651 21.9139 11.825 21.6091 11.825H19.1631V12.8515H21.6652C21.9379 12.8515 22.1464 12.8114 22.2587 12.7072ZM21.8978 15.2655C22.2747 15.2655 22.4993 15.2173 22.6276 15.0971C22.7078 15.0168 22.7399 14.8966 22.7399 14.7442C22.7399 14.5838 22.6998 14.4635 22.6035 14.3672C22.4833 14.263 22.2747 14.2149 21.9219 14.2149H19.1631V15.2655H21.8978Z" fill="#868C98"/>
<path d="M32.5127 15.1291V16.693H25.8805V10.3975H32.4566V11.9694H27.9976V12.7794H32.3283V14.3111H27.9976V15.1291H32.5127Z" fill="#868C98"/>
<path d="M48.7777 10.3975V11.9774H46.115V16.693H43.9181V11.9774H41.2636V10.3975H48.7777Z" fill="#868C98"/>
<path d="M48.5872 22.2402V22.2637H48.2337L48.2084 21.9233C48.1005 22.0956 47.872 22.3024 47.3898 22.3024C46.5749 22.3024 46.1961 21.8112 46.1961 20.5572C46.1961 19.5877 46.4372 18.8078 47.4322 18.8078C48.2947 18.8078 48.5574 19.3723 48.5701 19.9798H48.1392C48.1265 19.5834 47.9494 19.2171 47.4411 19.2171C46.8294 19.2171 46.6523 19.5834 46.6523 20.5702C46.6523 21.6001 46.8726 21.9233 47.4501 21.9233C47.8549 21.9233 48.0916 21.6992 48.1697 21.432V20.7899H47.299V20.3978H48.5827V21.3889C48.5827 21.745 48.5864 22.1298 48.5872 22.2356V22.2384V22.2402Z" fill="#868C98"/>
<path fill-rule="evenodd" clip-rule="evenodd" d="M18.3501 21.4061H17.1436L16.885 22.2637H16.4325L17.5013 18.8509H18.0571L19.0568 22.2637H18.6L18.3501 21.4061ZM17.2599 21.0226H18.2424C18.2424 21.0226 17.8416 19.6351 17.8373 19.6136L17.8161 19.5124L17.7684 19.2861C17.7684 19.2861 17.6994 19.592 17.6951 19.6136C17.6865 19.6437 17.2599 21.0226 17.2599 21.0226Z" fill="#868C98"/>
<path d="M22.3274 18.8509H22.7411L21.9353 22.2637H21.4225C21.4225 22.2637 20.8494 19.6093 20.8494 19.4972C20.8451 19.6093 20.259 22.2637 20.259 22.2637H19.7463L18.9405 18.8509H19.4058C19.4058 18.8509 20.0306 21.5527 20.0306 21.6604C20.0306 21.5527 20.6038 18.8509 20.6038 18.8509H21.1166C21.1166 18.8509 21.6897 21.557 21.6897 21.6604C21.6897 21.557 22.3274 18.8509 22.3274 18.8509Z" fill="#868C98"/>
<path fill-rule="evenodd" clip-rule="evenodd" d="M23.3042 21.4061H24.5107L24.7607 22.2637H25.2175L24.2177 18.8509H23.6618L22.5932 22.2637H23.0456L23.3042 21.4061ZM24.403 21.0226H23.4206C23.4206 21.0226 23.8471 19.6437 23.8558 19.6136C23.8601 19.592 23.929 19.2861 23.929 19.2861L23.9654 19.4583L23.998 19.6136C24.0023 19.6351 24.403 21.0226 24.403 21.0226Z" fill="#868C98"/>
<path fill-rule="evenodd" clip-rule="evenodd" d="M26.8778 18.8509C27.4034 18.8509 27.6879 19.0965 27.6879 19.8118C27.6879 20.4194 27.4595 20.6219 27.2225 20.6908L27.8775 22.2637H27.4035L26.7959 20.7771H25.9686V22.2637H25.5376V18.8509H26.8778ZM26.8132 20.3892C27.1536 20.3892 27.2354 20.2125 27.2354 19.8247C27.2354 19.3852 27.1061 19.2516 26.7916 19.2516H25.9728V20.3892H26.8132Z" fill="#868C98"/>
<path fill-rule="evenodd" clip-rule="evenodd" d="M30.3242 21.8802C30.4965 21.6345 30.5568 21.3071 30.5568 20.5013C30.5568 19.773 30.5052 19.4628 30.3328 19.2129C30.1776 18.9802 29.8416 18.8509 29.4106 18.8509H28.2687V22.2637H29.4408C29.8803 22.2637 30.1518 22.1172 30.3242 21.8802ZM29.9449 21.6388C29.8329 21.7897 29.6132 21.8586 29.3503 21.8586H28.7039V19.2602H29.3417C29.6046 19.2602 29.8286 19.3292 29.9449 19.4886C30.0699 19.6739 30.1001 19.9626 30.1001 20.5013C30.1001 21.1433 30.0657 21.4751 29.9449 21.6388Z" fill="#868C98"/>
<path d="M35.1033 18.8509H35.5169L34.7111 22.2637H34.1983C34.1983 22.2637 33.6252 19.6093 33.6252 19.4972C33.6209 19.6093 33.0349 22.2637 33.0349 22.2637H32.5221L31.7163 18.8509H32.1817C32.1817 18.8509 32.8065 21.5527 32.8065 21.6604C32.8065 21.5527 33.3796 18.8509 33.3796 18.8509H33.8924C33.8924 18.8509 34.4655 21.557 34.4655 21.6604C34.4655 21.557 35.1033 18.8509 35.1033 18.8509Z" fill="#868C98"/>
<path d="M36.2788 22.2637V18.8509H35.8307V22.2637H36.2788Z" fill="#868C98"/>
<path d="M39.0843 18.8509V22.2637H38.5887L37.3175 19.6179V22.2637H36.8995V18.8509H37.421L38.662 21.4578V18.8509H39.0843Z" fill="#868C98"/>
<path d="M41.8783 22.2637V18.8509H41.4564V21.4578L40.2151 18.8509H39.6937V22.2637H40.1117V19.6179L41.3827 22.2637H41.8783Z" fill="#868C98"/>
<path d="M42.9358 18.8509V22.2637H42.4878V18.8509H42.9358Z" fill="#868C98"/>
<path d="M45.7414 22.2637V18.8509H45.3194V21.4578L44.0781 18.8509H43.5565V22.2637H43.9747V19.6179L45.2458 22.2637H45.7414Z" fill="#868C98"/>
<path d="M21.9946 28.9901L21.5009 27.4703L21.007 28.9901H19.4091L20.7018 29.9294L20.2081 31.4491L21.5009 30.5098L22.7937 31.4491L22.2998 29.9294L23.5926 28.9901H21.9946Z" fill="#868C98"/>
<path d="M27.2013 27.4705L27.7052 28.9902H29.3357L28.0166 29.9295L28.5205 31.4493L27.2013 30.51L25.8821 31.4493L26.386 29.9295L25.0668 28.9902H26.6974L27.2013 27.4705Z" fill="#868C98"/>
<path d="M33.3611 28.9902L32.8572 27.4705L32.3533 28.9902H30.7227L32.0418 29.9295L31.5379 31.4493L32.8572 30.51L34.1763 31.4493L33.6724 29.9295L34.9916 28.9902H33.3611Z" fill="#868C98"/>
<path d="M38.5129 27.4705L39.0168 28.9902H40.6474L39.3281 29.9295L39.832 31.4493L38.5129 30.51L37.1937 31.4493L37.6976 29.9295L36.3784 28.9902H38.009L38.5129 27.4705Z" fill="#868C98"/>
<path d="M44.707 28.9902L44.2136 27.4705L43.7194 28.9902H42.1217L43.4143 29.9295L42.9209 31.4493L44.2136 30.51L45.5062 31.4493L45.0121 29.9295L46.3055 28.9902H44.707Z" fill="#868C98"/>
<path d="M3.64032 11.9429C2.59191 11.9682 1.87288 11.0802 1.40821 10.3713C0.795372 9.43663 0.673847 8.02521 1.05472 6.87164C2.02142 7.07198 2.56326 8.0741 2.9521 8.81546C3.3774 9.6264 3.64121 10.6331 3.65022 11.6077C3.77033 10.6348 4.32944 9.68735 5.05643 9.16962C5.75262 8.67391 6.6862 8.14837 7.66131 8.43205C7.39511 9.3567 6.76456 10.212 6.06599 10.7969C5.41736 11.3399 4.5937 11.9905 3.64032 11.9429Z" fill="#868C98"/>
<path d="M3.95051 15.761C2.97749 15.9241 2.02836 15.3279 1.41195 14.6267C0.618348 13.7238 0.146163 12.5127 0.242461 11.3002C1.24205 11.3255 1.99911 12.1896 2.55867 12.843C3.16131 13.5467 3.65507 14.4726 3.89195 15.4276C3.78776 14.4758 4.10731 13.448 4.70051 12.813C5.27308 12.1999 6.07517 11.5318 7.07312 11.639C7.05161 12.6041 6.56782 13.5236 6.06884 14.2123C5.60372 14.8541 4.88722 15.6479 3.95051 15.761Z" fill="#868C98"/>
<path d="M5.27829 19.6919C4.13604 20.129 3.04915 19.5515 2.15301 18.9681C1.03866 18.2426 0.209191 16.8325 0 15.4732C1.09946 15.3366 2.19103 16.0627 2.94884 16.7519C3.78248 17.51 4.56945 18.3306 5.10757 19.3447C4.74337 18.3589 4.83431 17.2398 5.30843 16.2996C5.76194 15.4003 6.61582 14.6635 7.64555 14.5721C7.82504 15.5762 7.56577 16.634 7.1776 17.5513C6.81116 18.4171 6.21537 19.3604 5.27829 19.6919Z" fill="#868C98"/>
<path d="M7.58654 23.3666C8.4684 22.8394 8.8233 21.7301 8.96834 20.7796C9.1247 19.7544 9.118 18.6239 8.69225 17.6514C7.66914 17.9371 6.96685 18.858 6.73497 19.8666C6.48998 20.9322 6.69672 22.0679 7.29266 22.9752C6.50047 22.0663 5.44708 21.3159 4.43759 20.7897C3.46249 20.2814 2.2662 19.6683 1.09515 20.0386C1.65984 21.4167 2.8678 22.6998 4.2066 23.2306C5.2434 23.6415 6.50472 24.0479 7.58654 23.3666Z" fill="#868C98"/>
<path d="M11.1247 26.7294C11.893 25.9678 11.8966 24.7128 11.7672 23.7233C11.6219 22.6121 11.2966 21.4415 10.602 20.5298C9.60705 21.0376 9.14468 22.1773 9.17326 23.2425C9.20504 24.4335 9.85419 25.6151 10.7451 26.4201C9.6287 25.627 8.29378 25.0465 7.04109 24.6861L6.97702 24.6677C5.85479 24.3445 4.46844 23.9453 3.3349 24.5694C4.26305 25.9665 5.99477 27.0157 7.53315 27.3062C8.67905 27.5224 10.1647 27.712 11.1247 26.7294Z" fill="#868C98"/>
<path d="M16.2257 29.5311C16.7914 28.4542 16.2309 27.1903 15.7843 26.2561C15.2562 25.1517 14.5347 24.0262 13.5021 23.2179C12.5107 24.0724 12.6049 25.295 12.8997 26.3575C13.2502 27.6209 14.4654 28.6979 15.7238 29.3117C14.2664 28.7682 12.6748 28.442 11.1606 28.3457L11.0072 28.3358C9.79066 28.2566 8.20696 28.1534 7.23758 29.0437C8.70325 30.2897 10.7851 31.0086 12.62 30.9712C13.8496 30.9462 15.5367 30.8007 16.2257 29.5311Z" fill="#868C98"/>
<path d="M59.0266 5.61525C59.872 6.00364 60.6489 6.83638 61.0039 7.79139C60.7799 6.83363 60.7858 5.78522 61.0009 4.88706C61.1892 4.098 61.4645 2.98276 62.3665 2.60687C63.0206 3.65848 63.2826 5.08992 62.8993 6.16178C62.6225 6.93744 62.1246 7.96278 61.0947 8.12055C60.1496 8.33748 59.1948 7.83277 58.4409 7.41618C57.6022 6.95285 56.7814 6.21618 56.2828 5.34072C57.1989 4.87917 58.2415 5.25506 59.0266 5.61525Z" fill="#868C98"/>
<path d="M60.2634 9.17164C60.9898 9.68959 61.5472 10.6366 61.667 11.6088C61.6774 10.6346 61.9423 9.62894 62.368 8.81882C62.7572 8.07768 63.3005 7.07601 64.2672 6.87634C64.6467 8.03028 64.5239 9.44163 63.91 10.3758C63.4456 11.0834 62.7267 11.9696 61.6804 11.9458C60.7256 11.9946 59.901 11.3424 59.2521 10.7982C58.5541 10.2128 57.9245 9.35701 57.6595 8.43221C58.6344 8.14912 59.5676 8.67541 60.2634 9.17164Z" fill="#868C98"/>
<path d="M60.6155 12.815C61.2093 13.4514 61.5278 14.4813 61.4214 15.434C61.6588 14.4778 62.1537 13.5509 62.758 12.8467C63.3183 12.1938 64.0759 11.3304 65.0761 11.3057C65.1706 12.5183 64.6973 13.7291 63.9033 14.6313C63.2856 15.3325 62.3353 15.9283 61.3619 15.7635C60.4257 15.6491 59.7105 14.8553 59.2462 14.2134C58.7475 13.5244 58.2646 12.6044 58.2445 11.6393C59.2424 11.5328 60.0439 12.2015 60.6155 12.815Z" fill="#868C98"/>
<path d="M60.0045 16.3014C60.4778 17.2421 60.5678 18.3615 60.2024 19.3469C60.7412 18.333 61.5293 17.5129 62.3635 16.7553C63.1218 16.0666 64.2143 15.3416 65.3135 15.4789C65.1036 16.838 64.2724 18.2476 63.1576 18.9721C62.2616 19.5541 61.1758 20.1304 60.035 19.6951C59.0965 19.3642 58.5005 18.419 58.1343 17.5517C57.7466 16.6341 57.4884 15.5761 57.6692 14.5721C58.6984 14.6643 59.552 15.4018 60.0045 16.3014Z" fill="#868C98"/>
<path d="M58.5749 19.8674C58.8182 20.9325 58.6106 22.0671 58.0153 22.9735C58.8078 22.0661 59.8616 21.3172 60.8707 20.7921C61.8463 20.2845 63.043 19.6724 64.2136 20.0433C63.648 21.4212 62.4387 22.7034 61.0992 23.2332C60.061 23.644 58.7967 24.0502 57.7139 23.3634C56.8372 22.8343 56.4845 21.7273 56.3401 20.7786C56.1853 19.7532 56.1928 18.6228 56.6192 17.6507C57.6424 17.9372 58.3442 18.8586 58.5749 19.8674Z" fill="#868C98"/>
<path d="M53.5383 23.7204C53.408 24.7097 53.4103 25.9646 54.1783 26.7269C55.1368 27.7102 56.6229 27.5216 57.7689 27.3062C59.3079 27.0169 61.0404 25.9688 61.9699 24.5726C60.8372 23.9477 59.4501 24.3458 58.3278 24.6681L58.2631 24.6865C57.0106 25.0458 55.6756 25.6251 54.5585 26.4171C55.4501 25.6127 56.0997 24.432 56.1325 23.2415C56.1623 22.1763 55.7009 21.0363 54.7066 20.5277C54.0108 21.4389 53.6849 22.6093 53.5383 23.7204Z" fill="#868C98"/>
<path d="M49.0746 29.5246C49.7622 30.7948 51.4493 30.9415 52.6787 30.9675C54.5139 31.0061 56.5961 30.2887 58.0629 29.044C57.0947 28.1532 55.5111 28.255 54.2943 28.3333L54.1403 28.3431C52.6259 28.4383 51.034 28.7633 49.5762 29.3057C50.8353 28.693 52.0513 27.6167 52.4033 26.3536C52.6988 25.2913 52.7948 24.0688 51.8035 23.2136C50.7706 24.0211 50.048 25.1461 49.5189 26.2501C49.0739 27.1787 48.5157 28.4336 49.0649 29.5072L49.0746 29.5246Z" fill="#868C98"/>
</g>
<defs>
<clipPath id="clip0">
<rect width="65.4884" height="32" fill="white"/>
</clipPath>
</defs>
</svg>
