<svg width="79" height="32" viewBox="0 0 79 32" fill="none" xmlns="http://www.w3.org/2000/svg">
<g clip-path="url(#clip0)">
<path fill-rule="evenodd" clip-rule="evenodd" d="M16 0H62.1936C71.0301 0 78.1936 7.16342 78.1936 16C78.1936 24.8366 71.0301 32 62.1936 32H16C7.16342 32 0 24.8366 0 16C0 7.16342 7.16342 0 16 0ZM16 1.54841C8.01859 1.54841 1.54841 8.01859 1.54841 16C1.54841 23.9814 8.01859 30.4516 16 30.4516H62.1936C70.1749 30.4516 76.645 23.9814 76.645 16C76.645 8.01859 70.1749 1.54841 62.1936 1.54841H16Z" fill="#868C98"/>
<path fill-rule="evenodd" clip-rule="evenodd" d="M65.9845 24.3639C67.1465 22.3012 67.9139 19.3472 67.9139 16C67.9139 12.6528 67.1465 9.69884 65.9845 7.636C64.795 5.5251 63.3942 4.64515 62.1936 4.64515C60.9931 4.64515 59.5917 5.5251 58.4028 7.636C57.2408 9.69884 56.4734 12.6528 56.4734 16C56.4734 19.3472 57.2408 22.3012 58.4028 24.3639C59.5917 26.4749 60.9931 27.3548 62.1936 27.3548C63.3942 27.3548 64.795 26.4749 65.9845 24.3639ZM62.1936 28.9032C66.208 28.9032 69.4626 23.1263 69.4626 16C69.4626 8.87373 66.208 3.09674 62.1936 3.09674C58.1793 3.09674 54.9247 8.87373 54.9247 16C54.9247 23.1263 58.1793 28.9032 62.1936 28.9032Z" fill="#868C98"/>
<path fill-rule="evenodd" clip-rule="evenodd" d="M61.4196 27.6989V4.04303H62.9677V27.6989H61.4196Z" fill="#868C98"/>
<path d="M39.0234 10.1818C39.3569 10.1771 39.6405 10.1147 39.6358 9.77189V9.72047C39.6405 9.37918 39.3569 9.31683 39.0234 9.31219C38.6884 9.31683 38.4047 9.37918 38.4094 9.72047V9.77189C38.4047 10.1147 38.6884 10.1771 39.0234 10.1818Z" fill="#868C98"/>
<path d="M26.6514 9.31372C26.7512 9.31372 26.8306 9.39317 26.8306 9.49292C26.8306 9.54125 26.8135 9.58329 26.7777 9.61916C26.7434 9.65342 26.7013 9.67058 26.6514 9.67058H25.6556V9.31372H26.6514Z" fill="#868C98"/>
<path d="M32.4361 9.30902L32.7229 9.92772H32.1478L32.4361 9.30902Z" fill="#868C98"/>
<path d="M45.5173 9.92772L45.2304 9.30902L44.9421 9.92772H45.5173Z" fill="#868C98"/>
<path d="M24.8588 22.3368L24.435 21.4223L24.0088 22.3368H24.8588Z" fill="#868C98"/>
<path d="M34.3708 22.6409C34.684 22.6409 34.8614 22.3852 34.8614 22.0742C34.8614 21.7609 34.684 21.5075 34.3708 21.5075H33.0485V22.6409H34.3708Z" fill="#868C98"/>
<path d="M38.211 21.4223L38.6349 22.3368H37.7848L38.211 21.4223Z" fill="#868C98"/>
<path d="M43.6269 21.6941C43.6269 21.5467 43.5094 21.4292 43.362 21.4292H41.89V21.9568H43.362C43.4357 21.9568 43.4979 21.9314 43.5486 21.8807C43.6016 21.8278 43.6269 21.7655 43.6269 21.6941Z" fill="#868C98"/>
<path d="M48.2323 22.0742C48.2323 22.3852 48.0546 22.6409 47.7412 22.6409H46.4188V21.5075H47.7412C48.0546 21.5075 48.2323 21.7609 48.2323 22.0742Z" fill="#868C98"/>
<path d="M17.7255 12.7548L19.2618 16.3019L20.8734 12.7548H23.4265V18.6667H21.5136V15.4735L20.1128 18.6667H18.3957L17.01 15.4735V18.6667H15.0896V12.7548H17.7255Z" fill="#868C98"/>
<path d="M31.2644 18.6667V17.1981H27.0244V16.4299H31.0912V14.9915H27.0244V14.2308H31.2117V12.7548H25.0362V18.6667H31.2644Z" fill="#868C98"/>
<path d="M35.7763 18.7571C34.5186 18.7571 33.4718 18.3805 32.8844 17.6198C32.538 17.1755 32.3271 16.5052 32.3271 15.722C32.3271 15.0141 32.5078 14.3815 32.8994 13.8769C33.4944 13.1388 34.5713 12.6494 36.1755 12.6494C38.0206 12.6494 39.105 13.2142 39.5719 14.1631C39.6385 14.3008 39.687 14.4716 39.7157 14.6261C39.7324 14.7166 39.7424 14.8015 39.7452 14.871H37.7946C37.7721 14.7656 37.6666 14.6074 37.5311 14.4945C37.3202 14.3062 36.8683 14.1556 36.2131 14.1556C35.4826 14.1556 34.9855 14.2987 34.6918 14.63C34.4885 14.8635 34.383 15.2175 34.383 15.7371C34.383 16.2341 34.4885 16.5655 34.6692 16.799C34.9403 17.1153 35.4449 17.3186 36.2282 17.3186C36.9813 17.3186 37.5612 17.0927 37.7796 16.8366C37.8172 16.7932 37.8515 16.7387 37.8803 16.6824C37.9265 16.5923 37.9586 16.4977 37.9679 16.4375H35.8667V15.1647H39.7979V18.6667H38.1787L38.126 18.0943C38.0552 18.1529 37.9784 18.2086 37.8954 18.261C37.4131 18.5652 36.7208 18.7571 35.7763 18.7571Z" fill="#868C98"/>
<path d="M34.6279 15.7371C34.6279 15.2456 34.7284 14.9614 34.8758 14.7917C35.0976 14.5421 35.5021 14.4005 36.2131 14.4005C36.8453 14.4005 37.2235 14.5482 37.3679 14.6771L37.371 14.6799L37.3742 14.6826C37.4239 14.724 37.4693 14.775 37.5036 14.8247C37.5376 14.8738 37.5511 14.9079 37.5545 14.9198H35.6217V16.6824H37.5891C37.5187 16.762 37.3675 16.8614 37.1272 16.9412C36.888 17.0206 36.5811 17.0737 36.2281 17.0737C35.484 17.0737 35.0654 16.8811 34.8592 16.6441C34.7243 16.4674 34.6279 16.1963 34.6279 15.7371Z" fill="#868C98"/>
<path d="M44.3532 16.0043L44.9143 14.933L45.4444 16.0043H44.3532Z" fill="#868C98"/>
<path fill-rule="evenodd" clip-rule="evenodd" d="M46.4789 17.5746L46.9986 18.6667H49.1752L46.1925 12.7548H43.7601L40.6046 18.6667H42.7359L43.2857 17.5746H46.4789ZM43.9484 16.2492L44.694 14.8258L44.9199 14.2836L45.1308 14.8183L45.8389 16.2492H43.9484Z" fill="#868C98"/>
<path fill-rule="evenodd" clip-rule="evenodd" d="M16 28.9032C11.9351 28.9032 8.30921 27.0235 5.94413 24.086H12.7311V23.2258H5.30822C4.20085 21.5905 3.45884 19.6876 3.19931 17.6344H12.7311V16.7742H3.11958C3.10441 16.518 3.09674 16.2599 3.09674 16C3.09674 14.297 3.42662 12.6712 4.02601 11.1828H12.7311V10.3226H4.40968C5.32157 8.46447 6.66706 6.85774 8.31434 5.6344H54.5081C51.3418 7.98574 49.2905 11.7532 49.2905 16C49.2905 18.6773 50.1059 21.1642 51.5018 23.2258H50.7095V24.086H52.1373C54.4778 26.9924 58.0518 28.8633 62.0645 28.9025V28.9032H16ZM37.5928 9.67054C37.5897 8.87732 38.2348 8.64979 39.0234 8.64825C39.8119 8.64825 40.4524 8.87887 40.4524 9.67054V9.82325C40.4555 10.6149 39.8103 10.844 39.0234 10.8455C38.2348 10.844 37.5897 10.6149 37.5928 9.82325V9.67054ZM14.5257 10.7941V8.69967H15.3423V10.7941H14.5257ZM16.8991 8.69967L17.8186 9.80924V8.69967H18.6367V10.7941H17.7173L16.5921 9.51473V10.7941H15.7755V8.69967H16.8991ZM20.7078 10.7973V9.36665H21.6786V8.70281H18.9204V9.36665H19.8912V10.7973H20.7078ZM24.4043 10.7973H21.953V8.70281H24.4043V9.23887H22.7695V9.5069H24.4043V9.99158H22.7695V10.2596H24.4043V10.7973ZM24.839 8.70121V10.7957H25.6556V10.2846H26.385L26.7792 10.7957H27.6488L27.1922 10.2082C27.3293 10.1443 27.44 10.0476 27.5226 9.92146C27.6067 9.79363 27.6488 9.65029 27.6488 9.49288C27.655 9.05967 27.2888 8.69658 26.8571 8.70121H24.839ZM29.0264 8.69967L29.9458 9.80924V8.69967H30.764V10.7941H29.8445L28.7194 9.51473V10.7941H27.9028V8.69967H29.0264ZM30.8263 10.7973H31.7458L31.911 10.4388H32.9597L33.1249 10.7973H34.0444L32.9208 8.70281H31.9499L30.8263 10.7973ZM35.2911 9.36665V10.7973H34.4745V9.36665H33.5036V8.70281H36.2619V9.36665H35.2911ZM36.5362 8.69967V10.7941H37.3528V8.69967H36.5362ZM42.7401 9.80924L41.8207 8.69967H40.6971V10.7941H41.5137V9.51473L42.6388 10.7941H43.5583V8.69967H42.7401V9.80924ZM44.54 10.7973H43.6206L44.7442 8.70281H45.7153L46.8386 10.7973H45.9194L45.7539 10.4388H44.7052L44.54 10.7973ZM46.9026 8.69967V10.7941H49.3539V10.1302H47.7191V8.69967H46.9026ZM15.8053 21.542C15.8053 21.2956 16.2661 21.2402 16.6416 21.2402C17.0194 21.2402 17.3396 21.2978 17.4778 21.542H18.7425C18.6273 20.5745 17.7266 20.4524 16.6416 20.4455C15.5542 20.4455 14.5406 20.6575 14.5406 21.542C14.5383 22.3145 15.7473 22.3757 16.6108 22.4195L16.6162 22.4198C17.1023 22.4428 17.4778 22.4635 17.4778 22.5994C17.4778 22.839 17.0171 22.9012 16.6416 22.9012C16.2637 22.9012 15.9435 22.839 15.8053 22.5994H14.5406C14.6558 23.5601 15.5565 23.6914 16.6416 23.6937C17.7289 23.6937 18.7425 23.4841 18.7425 22.5994C18.7448 21.8247 17.5358 21.7634 16.6722 21.7197L16.6669 21.7194C16.1808 21.6964 15.8053 21.678 15.8053 21.542ZM21.4217 23.6223V21.5075H22.8569V20.5262H18.7794V21.5075H20.2146V23.6223H21.4217ZM23.4144 23.6223H22.0552L23.7162 20.5262H25.1514L26.8123 23.6223H25.4532L25.209 23.0924H23.6586L23.4144 23.6223ZM29.9269 22.1617L28.5677 20.5215H26.9068V23.6177H28.1139V21.7264L29.7772 23.6177H31.1364V20.5215H29.9269V22.1617ZM31.8412 23.6223V20.5262H34.5965C35.4465 20.5146 36.0778 21.2288 36.0708 22.0742C36.0778 22.9151 35.4465 23.6338 34.5965 23.6223H31.8412ZM35.8312 23.6223H37.1904L37.4346 23.0924H38.985L39.2292 23.6223H40.5883L38.9274 20.5262H37.4922L35.8312 23.6223ZM40.6828 23.62V20.5238H43.6661C44.3042 20.5169 44.8455 21.0537 44.8363 21.6941C44.8363 21.9268 44.7741 22.1387 44.6497 22.3276C44.5276 22.5142 44.3641 22.657 44.1614 22.7515L44.8363 23.62H43.5509L42.9681 22.8644H41.89V23.62H40.6828ZM45.2118 20.5262V23.6223H47.9669C48.8171 23.6338 49.4482 22.9151 49.4416 22.0742C49.4482 21.2288 48.8171 20.5146 47.9669 20.5262H45.2118ZM21.2687 18.9115H23.6714V12.5098H20.7157L19.2671 15.698L17.8863 12.5098H14.8447V18.9115H17.2549V16.653L18.235 18.9115H20.2728L21.2687 16.6414V18.9115ZM24.7913 18.9115H31.5093V16.9531H27.2693V16.6748H31.3361V14.7466H27.2693V14.4757H31.4566V12.5098H24.7913V18.9115ZM37.9553 18.9115H40.0428V14.9198H39.9922L39.9898 14.8612C39.9812 14.6454 39.9149 14.3103 39.7925 14.0566L39.7921 14.0558L39.7916 14.0549C39.2649 12.9842 38.0623 12.4044 36.1754 12.4044C34.5245 12.4044 33.3649 12.909 32.7087 13.7232L32.7073 13.7249L32.7059 13.7267C32.2739 14.2833 32.0821 14.9723 32.0821 15.722C32.0821 16.5447 32.303 17.2723 32.6908 17.77C33.3428 18.6138 34.4785 19.0019 35.7762 19.0019C36.6885 19.0019 37.3969 18.8287 37.9202 18.5314L37.9553 18.9115ZM42.8868 18.9115L43.4365 17.8195H46.3244L46.8436 18.9115H49.5729L46.3437 12.5098H43.6132L40.1963 18.9115H42.8868ZM49.5481 26.7957H14.4946V25.9354H49.5481V26.7957Z" fill="#868C98"/>
<path d="M55.8267 4.77415C57.6706 3.72631 59.7975 3.11958 62.0645 3.09735V3.09674H16C13.6848 3.09674 11.512 3.70645 9.63342 4.77415H55.8267Z" fill="#868C98"/>
<path d="M62.1936 27.3548C68.4645 27.3548 73.5481 22.271 73.5481 16C73.5481 9.72885 68.4645 4.6451 62.1936 4.6451C57.9906 4.6451 54.3211 6.92858 52.3575 10.3226H50.7095V11.1828H51.9084C51.2221 12.6452 50.8386 14.2778 50.8386 16C50.8386 18.745 51.813 21.2625 53.4339 23.2258H51.5018C50.1059 21.1642 49.2905 18.6773 49.2905 16C49.2905 8.87368 55.067 3.09674 62.1936 3.09674C69.3197 3.09674 75.0968 8.87368 75.0968 16C75.0968 23.1262 69.3197 28.9032 62.1936 28.9032C58.1285 28.9032 54.5026 27.0235 52.1374 24.086H54.2218C56.272 26.1073 59.0869 27.3548 62.1936 27.3548Z" fill="#868C98"/>
<path d="M65.6027 23.2258H52.1721V21.6774H66.2085C66.0292 22.2322 65.8256 22.7501 65.6027 23.2258Z" fill="#868C98"/>
<path d="M66.5457 23.2258H72.3012V21.6774H67.1106C66.944 22.2247 66.7542 22.7423 66.5457 23.2258Z" fill="#868C98"/>
<path d="M67.0395 16.7742H50.0646V15.2258H67.0395C67.0489 15.4809 67.0538 15.7391 67.0538 16C67.0538 16.2609 67.0489 16.5191 67.0395 16.7742Z" fill="#868C98"/>
<path d="M67.9001 16.7742H74.3443V15.2258H67.9001C67.9095 15.4813 67.9139 15.7395 67.9139 16C67.9139 16.2605 67.9095 16.5187 67.9001 16.7742Z" fill="#868C98"/>
<path d="M66.2091 10.3226H52.1721V8.77423H65.6027C65.8256 9.24987 66.0292 9.76778 66.2091 10.3226Z" fill="#868C98"/>
<path d="M67.1106 10.3226H72.3012V8.77423H66.5457C66.7542 9.25776 66.944 9.77533 67.1106 10.3226Z" fill="#868C98"/>
</g>
<defs>
<clipPath id="clip0">
<rect width="78.3448" height="32" fill="white"/>
</clipPath>
</defs>
</svg>
