<svg width="151" height="32" viewBox="0 0 151 32" fill="none" xmlns="http://www.w3.org/2000/svg">
<path d="M19.75 16.0625C19.1042 17.4896 18.401 18.849 17.6406 20.1406C16.8906 21.4219 16.0833 22.5469 15.2188 23.5156C14.3646 24.4844 13.4688 25.2552 12.5312 25.8281C11.5938 26.3906 10.625 26.6719 9.625 26.6719C9.04167 26.6719 8.45312 26.5781 7.85938 26.3906C7.26562 26.2031 6.65625 25.9115 6.03125 25.5156C5.41667 25.1094 4.79167 24.5938 4.15625 23.9688C3.53125 23.3333 2.89583 22.5677 2.25 21.6719C2.09375 21.4948 1.98438 21.3177 1.92188 21.1406C1.85938 20.9635 1.82812 20.7708 1.82812 20.5625C1.82812 20.4062 1.875 20.2135 1.96875 19.9844C2.07292 19.7552 2.21875 19.5365 2.40625 19.3281C2.59375 19.1094 2.82292 18.9271 3.09375 18.7812C3.36458 18.625 3.67188 18.5469 4.01562 18.5469C4.22396 18.5469 4.41667 18.5833 4.59375 18.6562C4.77083 18.7292 4.93229 18.8542 5.07812 19.0312C5.91146 20.6979 6.73438 21.9167 7.54688 22.6875C8.36979 23.4583 9.18229 23.8438 9.98438 23.8438C10.5677 23.8438 11.1458 23.6562 11.7188 23.2812C12.3021 22.8958 12.8802 22.3438 13.4531 21.625C14.026 20.8958 14.599 20.0104 15.1719 18.9688C15.7552 17.9271 16.3385 16.7448 16.9219 15.4219L21.4062 6.125C20.2917 6.11458 19.3698 6.10938 18.6406 6.10938C17.9219 6.10938 17.4271 6.10938 17.1562 6.10938C16.9688 6.10938 16.7969 6.06771 16.6406 5.98438C16.4948 5.90104 16.3646 5.79688 16.25 5.67188C16.1458 5.54688 16.0625 5.40625 16 5.25C15.9375 5.09375 15.9062 4.94271 15.9062 4.79688C15.9062 4.50521 16.0208 4.27083 16.25 4.09375C16.4792 3.90625 16.8438 3.8125 17.3438 3.8125C17.4375 3.8125 17.5312 3.81771 17.625 3.82812C17.7292 3.82812 17.8281 3.82812 17.9219 3.82812C18.6927 3.82812 19.4635 3.80729 20.2344 3.76562C21.0156 3.72396 21.7865 3.68229 22.5469 3.64062C23.3177 3.58854 24.0833 3.54167 24.8438 3.5C25.6146 3.45833 26.375 3.4375 27.125 3.4375C27.7188 3.4375 28.2031 3.45833 28.5781 3.5C28.9635 3.53125 29.2656 3.58333 29.4844 3.65625C29.7031 3.71875 29.8542 3.80208 29.9375 3.90625C30.0208 4.01042 30.0625 4.125 30.0625 4.25C30.0625 4.41667 30.0208 4.58854 29.9375 4.76562C29.8646 4.94271 29.7188 5.10938 29.5 5.26562C29.2812 5.41146 28.9688 5.53125 28.5625 5.625C28.1667 5.71875 27.6458 5.76562 27 5.76562C26.6979 5.76562 26.3646 5.78125 26 5.8125C25.6458 5.83333 25.2552 5.86979 24.8281 5.92188L19.75 16.0625ZM27.2812 17.3906C26.7917 17.3906 26.3177 17.5156 25.8594 17.7656C25.4115 18.0052 25.0104 18.3281 24.6562 18.7344C24.3125 19.1302 24.0365 19.5833 23.8281 20.0938C23.6198 20.5938 23.5156 21.1094 23.5156 21.6406C23.5156 21.8385 23.5312 22.0573 23.5625 22.2969C23.5938 22.526 23.6562 22.7448 23.75 22.9531C23.8542 23.151 24 23.3177 24.1875 23.4531C24.375 23.5885 24.625 23.6562 24.9375 23.6562C25.4167 23.6562 25.8802 23.5312 26.3281 23.2812C26.7865 23.0208 27.1927 22.6875 27.5469 22.2812C27.901 21.8646 28.1823 21.3958 28.3906 20.875C28.599 20.3542 28.7031 19.8281 28.7031 19.2969C28.7031 19.0885 28.6875 18.875 28.6562 18.6562C28.6354 18.4271 28.5729 18.2188 28.4688 18.0312C28.375 17.8438 28.2344 17.6927 28.0469 17.5781C27.8594 17.4531 27.6042 17.3906 27.2812 17.3906ZM28.0938 14.6406C28.4896 14.6406 28.9115 14.6927 29.3594 14.7969C29.8177 14.901 30.2396 15.0781 30.625 15.3281C31.0104 15.5781 31.3281 15.9115 31.5781 16.3281C31.8385 16.7344 31.9688 17.2396 31.9688 17.8438C31.9688 18.1562 31.9271 18.5156 31.8438 18.9219C31.7604 19.3177 31.6354 19.7344 31.4688 20.1719C31.5729 20.2969 31.6927 20.3854 31.8281 20.4375C31.9635 20.4896 32.1094 20.5156 32.2656 20.5156C32.4844 20.5156 32.724 20.4531 32.9844 20.3281C33.2552 20.2031 33.5312 20.0417 33.8125 19.8438C34.0938 19.6458 34.375 19.4219 34.6562 19.1719C34.9375 18.9219 35.2031 18.6719 35.4531 18.4219C35.7031 18.1719 35.9271 17.9375 36.125 17.7188C36.3333 17.4896 36.5052 17.2969 36.6406 17.1406C36.7135 17.0677 36.8021 17.0312 36.9062 17.0312C37.0521 17.0312 37.1823 17.1094 37.2969 17.2656C37.4115 17.4115 37.4688 17.6198 37.4688 17.8906C37.4688 18.1615 37.3854 18.474 37.2188 18.8281C37.0625 19.1823 36.7656 19.5521 36.3281 19.9375C36.0781 20.2083 35.7917 20.5208 35.4688 20.875C35.1458 21.2292 34.8021 21.5625 34.4375 21.875C34.0729 22.1875 33.6927 22.4531 33.2969 22.6719C32.901 22.8906 32.5052 23 32.1094 23C31.8385 23 31.5729 22.9583 31.3125 22.875C31.0625 22.7917 30.8073 22.6562 30.5469 22.4688C30.1719 23.0521 29.7448 23.5833 29.2656 24.0625C28.7865 24.5417 28.25 24.9531 27.6562 25.2969C27.0729 25.6406 26.4375 25.9062 25.75 26.0938C25.0729 26.2917 24.349 26.3906 23.5781 26.3906C23.2865 26.3906 22.9479 26.3333 22.5625 26.2188C22.1771 26.1042 21.8073 25.9167 21.4531 25.6562C21.1094 25.3854 20.8177 25.0365 20.5781 24.6094C20.3385 24.1823 20.2188 23.6615 20.2188 23.0469C20.2188 22.6302 20.2865 22.1302 20.4219 21.5469C20.5573 20.9635 20.7604 20.3646 21.0312 19.75C21.3125 19.125 21.6615 18.5104 22.0781 17.9062C22.5052 17.2917 23.0104 16.7448 23.5938 16.2656C24.1771 15.776 24.8438 15.3854 25.5938 15.0938C26.3438 14.7917 27.1771 14.6406 28.0938 14.6406ZM33.0469 23.5312C33.2969 23 33.5833 22.4115 33.9062 21.7656C34.2292 21.1094 34.5521 20.4635 34.875 19.8281C35.2083 19.1823 35.5208 18.5729 35.8125 18C36.1042 17.4167 36.349 16.9219 36.5469 16.5156L41.7031 6.375C41.7656 6.23958 41.8594 6.10938 41.9844 5.98438C42.1198 5.85938 42.2708 5.75 42.4375 5.65625C42.6042 5.55208 42.7812 5.47396 42.9688 5.42188C43.1562 5.35938 43.3438 5.32812 43.5312 5.32812C43.9896 5.32812 44.3073 5.41667 44.4844 5.59375C44.6615 5.76042 44.75 5.96875 44.75 6.21875C44.75 6.44792 44.6927 6.69271 44.5781 6.95312C44.4635 7.20312 44.3333 7.4375 44.1875 7.65625C43.7292 8.4375 43.2865 9.22917 42.8594 10.0312C42.4427 10.8229 42.0208 11.625 41.5938 12.4375C41.1771 13.2396 40.7552 14.0417 40.3281 14.8438C39.901 15.6354 39.4531 16.4219 38.9844 17.2031C39.276 16.9219 39.5833 16.6302 39.9062 16.3281C40.2396 16.026 40.599 15.75 40.9844 15.5C41.3698 15.25 41.7917 15.0469 42.25 14.8906C42.7083 14.724 43.2188 14.6406 43.7812 14.6406C44.1146 14.6406 44.4323 14.6719 44.7344 14.7344C45.0365 14.7969 45.3021 14.901 45.5312 15.0469C45.7604 15.1823 45.9427 15.375 46.0781 15.625C46.2135 15.8646 46.2812 16.1615 46.2812 16.5156C46.2812 16.9844 46.2083 17.4167 46.0625 17.8125C45.9271 18.1979 45.75 18.5677 45.5312 18.9219C45.3125 19.2656 45.0729 19.599 44.8125 19.9219C44.5521 20.2344 44.3021 20.5573 44.0625 20.8906C43.8333 21.2135 43.6302 21.5521 43.4531 21.9062C43.2865 22.2604 43.1823 22.6458 43.1406 23.0625C43.1406 23.0833 43.1354 23.1042 43.125 23.125C43.125 23.1458 43.125 23.1667 43.125 23.1875C43.125 23.3958 43.1927 23.526 43.3281 23.5781C43.474 23.6302 43.6562 23.6562 43.875 23.6562C44.1562 23.6562 44.4583 23.6042 44.7812 23.5C45.1042 23.3854 45.4271 23.2396 45.75 23.0625C46.0833 22.875 46.4115 22.6667 46.7344 22.4375C47.0677 22.2083 47.3802 21.974 47.6719 21.7344C47.974 21.4948 48.25 21.2656 48.5 21.0469C48.75 20.8177 48.9635 20.6198 49.1406 20.4531C49.2344 20.3698 49.3333 20.3073 49.4375 20.2656C49.5417 20.224 49.6406 20.2031 49.7344 20.2031C49.9219 20.2031 50.0781 20.276 50.2031 20.4219C50.3385 20.5573 50.4062 20.7448 50.4062 20.9844C50.4062 21.2031 50.3281 21.4531 50.1719 21.7344C50.026 22.0156 49.7708 22.2969 49.4062 22.5781C48.8333 23.0781 48.25 23.5573 47.6562 24.0156C47.0625 24.474 46.4635 24.8802 45.8594 25.2344C45.2552 25.5885 44.651 25.8698 44.0469 26.0781C43.4531 26.2865 42.8698 26.3906 42.2969 26.3906C41.5573 26.3906 40.9635 26.224 40.5156 25.8906C40.0677 25.5469 39.8438 25.0104 39.8438 24.2812C39.8438 23.75 39.9323 23.25 40.1094 22.7812C40.2969 22.3021 40.5208 21.8438 40.7812 21.4062C41.0521 20.9583 41.3385 20.5312 41.6406 20.125C41.9427 19.7083 42.2083 19.3021 42.4375 18.9062C42.5625 18.7292 42.6562 18.5677 42.7188 18.4219C42.7917 18.2656 42.8281 18.099 42.8281 17.9219C42.8281 17.7656 42.7865 17.6406 42.7031 17.5469C42.6198 17.4427 42.4896 17.3906 42.3125 17.3906C41.6979 17.3906 41.1302 17.5417 40.6094 17.8438C40.0885 18.1458 39.6094 18.5312 39.1719 19C38.7344 19.4688 38.3281 19.9844 37.9531 20.5469C37.5781 21.099 37.2292 21.6302 36.9062 22.1406C36.7604 22.3698 36.6094 22.6354 36.4531 22.9375C36.3073 23.2292 36.151 23.5312 35.9844 23.8438C35.8281 24.1562 35.6615 24.4688 35.4844 24.7812C35.3073 25.0833 35.1198 25.3542 34.9219 25.5938C34.7344 25.8333 34.5312 26.026 34.3125 26.1719C34.1042 26.3177 33.8854 26.3906 33.6562 26.3906C33.2917 26.3906 33.0104 26.2812 32.8125 26.0625C32.6146 25.8542 32.5156 25.5885 32.5156 25.2656C32.5156 25.026 32.5573 24.776 32.6406 24.5156C32.724 24.2448 32.8594 23.9167 33.0469 23.5312ZM51.0781 16.5156C51.2865 16.0677 51.5469 15.7344 51.8594 15.5156C52.1719 15.2969 52.4792 15.1875 52.7812 15.1875C53.0312 15.1875 53.2552 15.2812 53.4531 15.4688C53.651 15.6458 53.75 15.9115 53.75 16.2656C53.75 16.401 53.7344 16.5469 53.7031 16.7031C53.6719 16.8594 53.6146 17.026 53.5312 17.2031C53.7604 16.9115 54.0885 16.6146 54.5156 16.3125C54.9427 16 55.4115 15.724 55.9219 15.4844C56.4427 15.2344 56.974 15.0312 57.5156 14.875C58.0677 14.7188 58.5885 14.6406 59.0781 14.6406C59.6302 14.6406 60.0885 14.776 60.4531 15.0469C60.8281 15.3073 61.0156 15.7552 61.0156 16.3906C61.0156 16.7656 60.9583 17.1562 60.8438 17.5625C60.7292 17.9688 60.5781 18.375 60.3906 18.7812C60.2135 19.1875 60.0104 19.5885 59.7812 19.9844C59.5625 20.3698 59.3438 20.7344 59.125 21.0781C58.9062 21.4219 58.7031 21.7396 58.5156 22.0312C58.3385 22.3125 58.1979 22.5469 58.0938 22.7344C57.9583 22.901 57.8906 23.0938 57.8906 23.3125C57.8906 23.3958 57.9167 23.4688 57.9688 23.5312C58.0208 23.5938 58.1042 23.625 58.2188 23.625C58.2917 23.625 58.375 23.6198 58.4688 23.6094C58.5625 23.5885 58.6771 23.5312 58.8125 23.4375C59.375 23.2292 59.9479 22.9688 60.5312 22.6562C61.125 22.3438 61.6927 22.0156 62.2344 21.6719C62.776 21.3177 63.2708 20.9688 63.7188 20.625C64.1771 20.2708 64.5573 19.9531 64.8594 19.6719C64.9427 19.599 65.026 19.5469 65.1094 19.5156C65.1927 19.4844 65.2708 19.4688 65.3438 19.4688C65.5208 19.4688 65.6562 19.5365 65.75 19.6719C65.8542 19.8073 65.9062 19.9792 65.9062 20.1875C65.9062 20.5104 65.8021 20.8698 65.5938 21.2656C65.3958 21.6615 65.0781 22.0312 64.6406 22.375C64.0469 22.8021 63.5 23.1927 63 23.5469C62.5104 23.901 62.0052 24.2344 61.4844 24.5469C60.974 24.849 60.4219 25.1354 59.8281 25.4062C59.2448 25.6667 58.5573 25.9115 57.7656 26.1406C57.4948 26.224 57.2448 26.2865 57.0156 26.3281C56.7969 26.3698 56.5938 26.3906 56.4062 26.3906C55.8542 26.3906 55.4479 26.2396 55.1875 25.9375C54.9375 25.625 54.8125 25.1927 54.8125 24.6406C54.8125 24.5677 54.8125 24.5 54.8125 24.4375C54.8229 24.3646 54.8333 24.2865 54.8438 24.2031C54.8646 23.8802 54.9479 23.526 55.0938 23.1406C55.25 22.7552 55.4323 22.3594 55.6406 21.9531C55.8594 21.5469 56.0885 21.1458 56.3281 20.75C56.5677 20.3438 56.7865 19.9635 56.9844 19.6094C57.1927 19.2448 57.3646 18.9219 57.5 18.6406C57.6354 18.3594 57.7031 18.1302 57.7031 17.9531C57.7031 17.7969 57.6562 17.6667 57.5625 17.5625C57.4792 17.4479 57.349 17.3906 57.1719 17.3906C56.5052 17.3906 55.8698 17.5885 55.2656 17.9844C54.6719 18.3802 54.1146 18.8698 53.5938 19.4531C53.0729 20.026 52.5938 20.6354 52.1562 21.2812C51.7188 21.9271 51.3333 22.5052 51 23.0156C50.7917 23.3594 50.599 23.7292 50.4219 24.125C50.2552 24.5104 50.0781 24.875 49.8906 25.2188C49.7031 25.5521 49.4896 25.8281 49.25 26.0469C49.0208 26.276 48.7292 26.3906 48.375 26.3906C48.0104 26.3906 47.724 26.276 47.5156 26.0469C47.3073 25.8177 47.2031 25.5365 47.2031 25.2031C47.2031 25.026 47.276 24.7396 47.4219 24.3438C47.5677 23.9479 47.7552 23.4896 47.9844 22.9688C48.2135 22.4479 48.4688 21.8906 48.75 21.2969C49.0417 20.6927 49.3281 20.099 49.6094 19.5156C49.901 18.9219 50.1771 18.3646 50.4375 17.8438C50.6979 17.3229 50.9115 16.8802 51.0781 16.5156ZM72.8594 15.8281C72.9219 15.8385 72.9844 15.8438 73.0469 15.8438C73.1198 15.8438 73.1927 15.8438 73.2656 15.8438C74.1719 15.8438 75.026 15.651 75.8281 15.2656C76.6406 14.8698 77.349 14.3698 77.9531 13.7656C78.5573 13.1615 79.0312 12.4896 79.375 11.75C79.7292 11.0104 79.9062 10.2917 79.9062 9.59375C79.9062 9.09375 79.8125 8.61979 79.625 8.17188C79.4479 7.72396 79.1615 7.33333 78.7656 7C78.3802 6.66667 77.8802 6.40104 77.2656 6.20312C76.6615 6.00521 75.9375 5.90625 75.0938 5.90625C74.1458 5.90625 73.3281 5.99479 72.6406 6.17188C71.9635 6.34896 71.375 6.57812 70.875 6.85938C70.3854 7.14062 69.9688 7.46354 69.625 7.82812C69.2917 8.19271 69 8.56771 68.75 8.95312C68.5104 9.33854 68.2917 9.71354 68.0938 10.0781C67.8958 10.4427 67.6875 10.7656 67.4688 11.0469C67.2604 11.3281 67.026 11.5573 66.7656 11.7344C66.5052 11.9115 66.1823 12 65.7969 12C65.276 12 64.8854 11.8698 64.625 11.6094C64.3646 11.3385 64.2344 10.9635 64.2344 10.4844C64.2344 10.0365 64.3542 9.55208 64.5938 9.03125C64.8438 8.51042 65.1927 7.98958 65.6406 7.46875C66.099 6.94792 66.6562 6.44792 67.3125 5.96875C67.9688 5.47917 68.7031 5.05208 69.5156 4.6875C70.3385 4.3125 71.2344 4.01562 72.2031 3.79688C73.1719 3.56771 74.1979 3.45312 75.2812 3.45312C76.3438 3.45312 77.3594 3.58854 78.3281 3.85938C79.3073 4.13021 80.1719 4.53646 80.9219 5.07812C81.6719 5.60938 82.2656 6.28125 82.7031 7.09375C83.151 7.90625 83.375 8.85417 83.375 9.9375C83.375 10.6667 83.2396 11.3646 82.9688 12.0312C82.7083 12.6875 82.3542 13.3073 81.9062 13.8906C81.4583 14.4635 80.9323 14.9948 80.3281 15.4844C79.7344 15.9635 79.099 16.3906 78.4219 16.7656C77.7448 17.1406 77.0469 17.4583 76.3281 17.7188C75.6198 17.9792 74.9323 18.1667 74.2656 18.2812C74.3594 18.7708 74.5104 19.3229 74.7188 19.9375C74.9375 20.5417 75.1979 21.1198 75.5 21.6719C75.8125 22.2135 76.1562 22.6771 76.5312 23.0625C76.9062 23.4479 77.3021 23.6562 77.7188 23.6875C77.8021 23.6979 77.8802 23.7031 77.9531 23.7031C78.026 23.7031 78.099 23.7031 78.1719 23.7031C78.9323 23.7031 79.6094 23.5781 80.2031 23.3281C80.7969 23.0781 81.2917 22.8021 81.6875 22.5C82.1562 22.1562 82.5625 21.7552 82.9062 21.2969C83.2292 20.9323 83.5573 20.75 83.8906 20.75C84.099 20.75 84.276 20.8229 84.4219 20.9688C84.5677 21.1146 84.6406 21.3125 84.6406 21.5625C84.6406 21.8021 84.5625 22.0833 84.4062 22.4062C84.2604 22.7188 84.0052 23.0469 83.6406 23.3906C82.5677 24.401 81.5156 25.1406 80.4844 25.6094C79.4635 26.0677 78.4948 26.2969 77.5781 26.2969C76.8281 26.2969 76.1354 26.0833 75.5 25.6562C74.8646 25.2292 74.2865 24.651 73.7656 23.9219C73.2448 23.1927 72.7708 22.3438 72.3438 21.375C71.9167 20.3958 71.5365 19.3646 71.2031 18.2812C71.0156 18.7083 70.8229 19.2135 70.625 19.7969C70.4271 20.3698 70.2135 20.9635 69.9844 21.5781C69.7552 22.1927 69.5156 22.8021 69.2656 23.4062C69.0156 24 68.7396 24.5365 68.4375 25.0156C68.1354 25.4844 67.8125 25.8646 67.4688 26.1562C67.125 26.4479 66.75 26.5938 66.3438 26.5938C66.0104 26.5938 65.7396 26.5417 65.5312 26.4375C65.3229 26.3333 65.1615 26.2031 65.0469 26.0469C64.9323 25.8906 64.849 25.7188 64.7969 25.5312C64.7552 25.3438 64.7344 25.1667 64.7344 25C64.7344 24.7604 64.7656 24.5156 64.8281 24.2656C64.8906 24.0156 64.9792 23.7812 65.0938 23.5625L69.7031 15.125C70.099 14.4167 70.4948 13.7344 70.8906 13.0781C71.2969 12.4115 71.6875 11.8229 72.0625 11.3125C72.4479 10.8021 72.8073 10.3958 73.1406 10.0938C73.4844 9.78125 73.7917 9.625 74.0625 9.625C74.1354 9.625 74.224 9.64062 74.3281 9.67188C74.4323 9.69271 74.526 9.73958 74.6094 9.8125C74.6927 9.875 74.7656 9.97396 74.8281 10.1094C74.8906 10.2344 74.9219 10.3958 74.9219 10.5938C74.9219 10.7917 74.8646 11.0677 74.75 11.4219C74.6354 11.776 74.4844 12.1823 74.2969 12.6406C74.1094 13.099 73.8906 13.6042 73.6406 14.1562C73.3906 14.6979 73.1302 15.2552 72.8594 15.8281ZM88.5 17.3906C88.0104 17.3906 87.5365 17.5156 87.0781 17.7656C86.6302 18.0052 86.2292 18.3281 85.875 18.7344C85.5312 19.1302 85.2552 19.5833 85.0469 20.0938C84.8385 20.5938 84.7344 21.1094 84.7344 21.6406C84.7344 21.8385 84.75 22.0573 84.7812 22.2969C84.8125 22.526 84.875 22.7448 84.9688 22.9531C85.0729 23.151 85.2188 23.3177 85.4062 23.4531C85.5938 23.5885 85.8438 23.6562 86.1562 23.6562C86.6354 23.6562 87.099 23.5312 87.5469 23.2812C88.0052 23.0208 88.4115 22.6875 88.7656 22.2812C89.1198 21.8646 89.401 21.3958 89.6094 20.875C89.8177 20.3542 89.9219 19.8281 89.9219 19.2969C89.9219 19.0885 89.9062 18.875 89.875 18.6562C89.8542 18.4271 89.7917 18.2188 89.6875 18.0312C89.5938 17.8438 89.4531 17.6927 89.2656 17.5781C89.0781 17.4531 88.8229 17.3906 88.5 17.3906ZM89.3125 14.6406C89.7083 14.6406 90.1302 14.6927 90.5781 14.7969C91.0365 14.901 91.4583 15.0781 91.8438 15.3281C92.2292 15.5781 92.5469 15.9115 92.7969 16.3281C93.0573 16.7344 93.1875 17.2396 93.1875 17.8438C93.1875 18.1562 93.1458 18.5156 93.0625 18.9219C92.9792 19.3177 92.8542 19.7344 92.6875 20.1719C92.7917 20.2969 92.9115 20.3854 93.0469 20.4375C93.1823 20.4896 93.3281 20.5156 93.4844 20.5156C93.7031 20.5156 93.9427 20.4531 94.2031 20.3281C94.474 20.2031 94.75 20.0417 95.0312 19.8438C95.3125 19.6458 95.5938 19.4219 95.875 19.1719C96.1562 18.9219 96.4219 18.6719 96.6719 18.4219C96.9219 18.1719 97.1458 17.9375 97.3438 17.7188C97.5521 17.4896 97.724 17.2969 97.8594 17.1406C97.9323 17.0677 98.0208 17.0312 98.125 17.0312C98.2708 17.0312 98.401 17.1094 98.5156 17.2656C98.6302 17.4115 98.6875 17.6198 98.6875 17.8906C98.6875 18.1615 98.6042 18.474 98.4375 18.8281C98.2812 19.1823 97.9844 19.5521 97.5469 19.9375C97.2969 20.2083 97.0104 20.5208 96.6875 20.875C96.3646 21.2292 96.0208 21.5625 95.6562 21.875C95.2917 22.1875 94.9115 22.4531 94.5156 22.6719C94.1198 22.8906 93.724 23 93.3281 23C93.0573 23 92.7917 22.9583 92.5312 22.875C92.2812 22.7917 92.026 22.6562 91.7656 22.4688C91.3906 23.0521 90.9635 23.5833 90.4844 24.0625C90.0052 24.5417 89.4688 24.9531 88.875 25.2969C88.2917 25.6406 87.6562 25.9062 86.9688 26.0938C86.2917 26.2917 85.5677 26.3906 84.7969 26.3906C84.5052 26.3906 84.1667 26.3333 83.7812 26.2188C83.3958 26.1042 83.026 25.9167 82.6719 25.6562C82.3281 25.3854 82.0365 25.0365 81.7969 24.6094C81.5573 24.1823 81.4375 23.6615 81.4375 23.0469C81.4375 22.6302 81.5052 22.1302 81.6406 21.5469C81.776 20.9635 81.9792 20.3646 82.25 19.75C82.5312 19.125 82.8802 18.5104 83.2969 17.9062C83.724 17.2917 84.2292 16.7448 84.8125 16.2656C85.3958 15.776 86.0625 15.3854 86.8125 15.0938C87.5625 14.7917 88.3958 14.6406 89.3125 14.6406ZM103.609 17.2344C103.016 17.2344 102.422 17.3802 101.828 17.6719C101.234 17.9531 100.698 18.3281 100.219 18.7969C99.75 19.2656 99.3646 19.7969 99.0625 20.3906C98.7604 20.974 98.6094 21.5677 98.6094 22.1719C98.6094 22.3385 98.625 22.5104 98.6562 22.6875C98.6875 22.8542 98.75 23.0104 98.8438 23.1562C98.9479 23.3021 99.0938 23.4219 99.2812 23.5156C99.4688 23.6094 99.7188 23.6562 100.031 23.6562C100.635 23.6562 101.219 23.5156 101.781 23.2344C102.354 22.9427 102.865 22.5625 103.312 22.0938C103.76 21.625 104.12 21.099 104.391 20.5156C104.661 19.9219 104.797 19.3281 104.797 18.7344C104.797 18.5781 104.781 18.4115 104.75 18.2344C104.729 18.0573 104.677 17.8958 104.594 17.75C104.51 17.6042 104.391 17.4844 104.234 17.3906C104.078 17.2865 103.87 17.2344 103.609 17.2344ZM104.922 23.5312C104.036 24.5938 103.094 25.375 102.094 25.875C101.104 26.3646 100.031 26.6094 98.875 26.6094C98.2396 26.6094 97.7031 26.5156 97.2656 26.3281C96.8281 26.151 96.474 25.9062 96.2031 25.5938C95.9323 25.2812 95.7344 24.9167 95.6094 24.5C95.4948 24.0833 95.4375 23.6406 95.4375 23.1719C95.4375 22.6406 95.5052 22.0938 95.6406 21.5312C95.776 20.9583 95.9531 20.4062 96.1719 19.875C96.3177 19.5312 96.4375 19.2448 96.5312 19.0156C96.625 18.7865 96.7031 18.5938 96.7656 18.4375C96.8281 18.2708 96.8802 18.1302 96.9219 18.0156C96.974 17.8906 97.026 17.7656 97.0781 17.6406C97.1302 17.5052 97.1927 17.3542 97.2656 17.1875C97.3385 17.0104 97.4375 16.7865 97.5625 16.5156L102.125 6.375C102.188 6.23958 102.276 6.10938 102.391 5.98438C102.516 5.85938 102.656 5.75 102.812 5.65625C102.969 5.55208 103.135 5.47396 103.312 5.42188C103.5 5.35938 103.688 5.32812 103.875 5.32812C104.354 5.32812 104.688 5.42188 104.875 5.60938C105.073 5.79688 105.172 6.02604 105.172 6.29688C105.172 6.50521 105.12 6.73438 105.016 6.98438C104.911 7.22396 104.797 7.44792 104.672 7.65625C103.901 9.13542 103.172 10.6406 102.484 12.1719C101.797 13.6927 101.068 15.1979 100.297 16.6875C100.63 16.4271 100.984 16.1771 101.359 15.9375C101.734 15.6875 102.125 15.4688 102.531 15.2812C102.938 15.0833 103.359 14.9271 103.797 14.8125C104.234 14.6875 104.682 14.625 105.141 14.625C105.464 14.625 105.792 14.6875 106.125 14.8125C106.458 14.9375 106.76 15.1198 107.031 15.3594C107.312 15.599 107.536 15.8958 107.703 16.25C107.88 16.5938 107.969 16.9948 107.969 17.4531C107.969 17.5573 107.938 17.7656 107.875 18.0781C107.812 18.3906 107.719 18.7448 107.594 19.1406C107.479 19.526 107.333 19.9271 107.156 20.3438C106.99 20.75 106.802 21.1094 106.594 21.4219C106.667 21.5365 106.76 21.6094 106.875 21.6406C106.99 21.6615 107.12 21.6719 107.266 21.6719C107.745 21.6719 108.219 21.6094 108.688 21.4844C109.167 21.3594 109.615 21.2083 110.031 21.0312C110.458 20.8438 110.849 20.651 111.203 20.4531C111.557 20.2552 111.854 20.0833 112.094 19.9375C112.219 19.8021 112.354 19.7344 112.5 19.7344C112.677 19.7344 112.828 19.8125 112.953 19.9688C113.089 20.125 113.156 20.3281 113.156 20.5781C113.156 20.8177 113.104 21.0573 113 21.2969C112.906 21.526 112.729 21.7812 112.469 22.0625C112 22.3438 111.526 22.6094 111.047 22.8594C110.578 23.1094 110.099 23.3281 109.609 23.5156C109.12 23.6927 108.62 23.8385 108.109 23.9531C107.609 24.0573 107.099 24.1094 106.578 24.1094C106.245 24.1094 105.938 24.0625 105.656 23.9688C105.375 23.875 105.13 23.7292 104.922 23.5312ZM116.375 16.7812C116.323 16.7708 116.276 16.7656 116.234 16.7656C116.193 16.7656 116.146 16.7656 116.094 16.7656C115.698 16.7656 115.328 16.8438 114.984 17C114.641 17.1562 114.323 17.3646 114.031 17.625C113.75 17.875 113.495 18.1615 113.266 18.4844C113.047 18.8073 112.849 19.1302 112.672 19.4531C112.495 19.7656 112.344 20.0677 112.219 20.3594C112.104 20.651 112.016 20.8958 111.953 21.0938C112.318 20.9062 112.693 20.6927 113.078 20.4531C113.474 20.2135 113.844 19.9844 114.188 19.7656C114.531 19.5469 114.828 19.349 115.078 19.1719C115.339 18.9948 115.521 18.875 115.625 18.8125C116.094 18.5208 116.417 18.25 116.594 18C116.771 17.7396 116.859 17.5156 116.859 17.3281C116.859 17.1719 116.807 17.0469 116.703 16.9531C116.609 16.8594 116.5 16.8021 116.375 16.7812ZM116.938 14.625C117.802 14.625 118.448 14.8333 118.875 15.25C119.302 15.6667 119.516 16.2448 119.516 16.9844C119.516 17.4219 119.401 17.8802 119.172 18.3594C118.943 18.8385 118.547 19.3281 117.984 19.8281C117.422 20.3177 116.667 20.8229 115.719 21.3438C114.781 21.8542 113.604 22.3698 112.188 22.8906C112.24 23.1927 112.401 23.4323 112.672 23.6094C112.943 23.776 113.302 23.8594 113.75 23.8594C114.229 23.8594 114.74 23.7917 115.281 23.6562C115.833 23.5104 116.375 23.3281 116.906 23.1094C117.448 22.8906 117.974 22.6562 118.484 22.4062C118.995 22.1458 119.453 21.901 119.859 21.6719C120.276 21.4427 120.62 21.2448 120.891 21.0781C121.172 20.9115 121.359 20.8073 121.453 20.7656C121.547 20.7031 121.63 20.6667 121.703 20.6562C121.786 20.6458 121.859 20.6406 121.922 20.6406C122.047 20.6406 122.151 20.6719 122.234 20.7344C122.318 20.7865 122.385 20.8542 122.438 20.9375C122.5 21.0104 122.542 21.0938 122.562 21.1875C122.583 21.2708 122.594 21.3438 122.594 21.4062C122.594 21.5 122.583 21.6146 122.562 21.75C122.542 21.875 122.464 22.0208 122.328 22.1875C122.276 22.2396 122.099 22.3802 121.797 22.6094C121.505 22.8385 121.125 23.1094 120.656 23.4219C120.188 23.7344 119.641 24.0677 119.016 24.4219C118.401 24.7656 117.745 25.0833 117.047 25.375C116.359 25.6667 115.641 25.9062 114.891 26.0938C114.141 26.2917 113.401 26.3906 112.672 26.3906C112.047 26.3906 111.49 26.2708 111 26.0312C110.521 25.7917 110.109 25.4688 109.766 25.0625C109.432 24.6562 109.177 24.1875 109 23.6562C108.823 23.125 108.734 22.5677 108.734 21.9844C108.734 21.5365 108.823 21.0469 109 20.5156C109.177 19.974 109.432 19.4323 109.766 18.8906C110.099 18.349 110.505 17.8229 110.984 17.3125C111.474 16.7917 112.021 16.3333 112.625 15.9375C113.229 15.5417 113.891 15.224 114.609 14.9844C115.339 14.7448 116.115 14.625 116.938 14.625ZM126.375 16.8906C126.781 16.6406 127.198 16.4115 127.625 16.2031C128.062 15.9948 128.484 15.8177 128.891 15.6719C129.297 15.5156 129.682 15.3958 130.047 15.3125C130.422 15.2188 130.755 15.1719 131.047 15.1719C131.516 15.1719 131.875 15.2865 132.125 15.5156C132.385 15.7344 132.516 16.1094 132.516 16.6406C132.516 16.7552 132.51 16.8802 132.5 17.0156C132.49 17.1406 132.469 17.276 132.438 17.4219C132.385 17.6927 132.229 18.0104 131.969 18.375C131.708 18.7396 131.401 19.1198 131.047 19.5156C130.703 19.9115 130.328 20.3125 129.922 20.7188C129.526 21.1146 129.156 21.4844 128.812 21.8281C128.479 22.1615 128.198 22.4531 127.969 22.7031C127.75 22.9531 127.641 23.125 127.641 23.2188C127.641 23.3021 127.646 23.3594 127.656 23.3906C127.667 23.4219 127.714 23.4375 127.797 23.4375C128.359 23.1979 128.984 22.9115 129.672 22.5781C130.37 22.2344 131.062 21.8854 131.75 21.5312C132.438 21.1771 133.089 20.8333 133.703 20.5C134.318 20.1562 134.839 19.8594 135.266 19.6094C135.359 19.5573 135.453 19.5156 135.547 19.4844C135.651 19.4427 135.745 19.4219 135.828 19.4219C136.016 19.4219 136.172 19.4844 136.297 19.6094C136.422 19.7344 136.484 19.901 136.484 20.1094C136.484 20.349 136.38 20.625 136.172 20.9375C135.974 21.2396 135.635 21.5573 135.156 21.8906C134.792 22.1198 134.38 22.3802 133.922 22.6719C133.474 22.9531 133 23.25 132.5 23.5625C132.01 23.8646 131.51 24.1615 131 24.4531C130.5 24.7448 130.016 25.0052 129.547 25.2344C129.078 25.4635 128.635 25.651 128.219 25.7969C127.812 25.9323 127.458 26 127.156 26C126.438 26 125.896 25.8281 125.531 25.4844C125.177 25.1406 125 24.6979 125 24.1562C125 24.0729 125.005 24.0104 125.016 23.9688C125.089 23.5104 125.224 23.0677 125.422 22.6406C125.62 22.2135 125.844 21.8073 126.094 21.4219C126.344 21.0365 126.604 20.6719 126.875 20.3281C127.146 19.974 127.391 19.6458 127.609 19.3438C127.839 19.0312 128.026 18.7448 128.172 18.4844C128.318 18.224 128.391 17.9844 128.391 17.7656C128.391 17.7135 128.38 17.6615 128.359 17.6094C128.339 17.5573 128.292 17.5312 128.219 17.5312C128.094 17.5312 127.885 17.5781 127.594 17.6719C127.312 17.7656 127.01 17.8906 126.688 18.0469C126.365 18.2031 126.057 18.3854 125.766 18.5938C125.474 18.7917 125.266 19.0052 125.141 19.2344C124.974 19.526 124.781 19.8958 124.562 20.3438C124.344 20.7917 124.115 21.2604 123.875 21.75C123.646 22.2396 123.422 22.724 123.203 23.2031C122.984 23.6823 122.797 24.0938 122.641 24.4375C122.516 24.7396 122.349 25.0104 122.141 25.25C121.943 25.4896 121.724 25.6927 121.484 25.8594C121.245 26.026 121 26.1562 120.75 26.25C120.5 26.3438 120.271 26.3906 120.062 26.3906C119.823 26.3906 119.63 26.3281 119.484 26.2031C119.349 26.0781 119.281 25.875 119.281 25.5938C119.281 25.4792 119.297 25.3385 119.328 25.1719C119.37 24.9948 119.448 24.8021 119.562 24.5938C119.75 24.2396 119.938 23.8542 120.125 23.4375C120.323 23.0208 120.547 22.5469 120.797 22.0156C121.047 21.474 121.333 20.8594 121.656 20.1719C121.99 19.474 122.38 18.6719 122.828 17.7656C122.682 17.6406 122.557 17.4896 122.453 17.3125C122.359 17.125 122.312 16.8958 122.312 16.625C122.312 16.375 122.365 16.1615 122.469 15.9844C122.573 15.7969 122.714 15.6458 122.891 15.5312C123.068 15.4167 123.271 15.3333 123.5 15.2812C123.74 15.2188 123.99 15.1875 124.25 15.1875C124.521 15.1875 124.792 15.2135 125.062 15.2656C125.333 15.3073 125.573 15.375 125.781 15.4688C126 15.5625 126.177 15.6771 126.312 15.8125C126.448 15.9479 126.516 16.1042 126.516 16.2812C126.516 16.3125 126.505 16.3542 126.484 16.4062C126.464 16.4583 126.438 16.5156 126.406 16.5781C126.385 16.6406 126.365 16.6979 126.344 16.75C126.323 16.8021 126.312 16.8438 126.312 16.875C126.312 16.8958 126.318 16.9062 126.328 16.9062H126.344L126.375 16.8906ZM138.766 17.3125C138.38 18.0625 138.016 18.7969 137.672 19.5156C137.328 20.224 137.005 20.8802 136.703 21.4844C136.578 21.7344 136.453 22.026 136.328 22.3594C136.214 22.6823 136.156 22.9688 136.156 23.2188C136.156 23.3646 136.188 23.4792 136.25 23.5625C136.323 23.6458 136.438 23.6875 136.594 23.6875C136.812 23.6875 137.089 23.625 137.422 23.5C137.755 23.3646 138.115 23.1927 138.5 22.9844C138.885 22.7656 139.292 22.5208 139.719 22.25C140.146 21.9688 140.562 21.6823 140.969 21.3906C141.385 21.0885 141.781 20.7917 142.156 20.5C142.531 20.1979 142.865 19.9219 143.156 19.6719C143.323 19.5573 143.479 19.5 143.625 19.5C143.802 19.5 143.948 19.5781 144.062 19.7344C144.177 19.8906 144.234 20.0885 144.234 20.3281C144.234 20.5677 144.177 20.8125 144.062 21.0625C143.948 21.3125 143.74 21.5573 143.438 21.7969C142.76 22.4115 142.073 22.9948 141.375 23.5469C140.688 24.099 140 24.5885 139.312 25.0156C138.635 25.4323 137.964 25.7656 137.297 26.0156C136.63 26.2656 135.984 26.3906 135.359 26.3906C134.943 26.3906 134.594 26.3333 134.312 26.2188C134.031 26.1146 133.802 25.9688 133.625 25.7812C133.458 25.5833 133.339 25.3594 133.266 25.1094C133.193 24.849 133.156 24.5729 133.156 24.2812C133.156 23.7604 133.245 23.2188 133.422 22.6562C133.599 22.0938 133.797 21.5885 134.016 21.1406C134.328 20.4948 134.635 19.8542 134.938 19.2188C135.25 18.5833 135.552 17.974 135.844 17.3906H135.172C134.589 17.3906 134.188 17.2969 133.969 17.1094C133.75 16.9219 133.641 16.7083 133.641 16.4688C133.641 16.3646 133.672 16.2396 133.734 16.0938C133.807 15.9375 133.906 15.7969 134.031 15.6719C134.167 15.5365 134.328 15.4219 134.516 15.3281C134.703 15.2344 134.917 15.1875 135.156 15.1875H136.844L140.141 8.64062C140.349 8.24479 140.604 7.96354 140.906 7.79688C141.219 7.61979 141.542 7.53125 141.875 7.53125C142.188 7.53125 142.474 7.61458 142.734 7.78125C142.995 7.94792 143.125 8.22396 143.125 8.60938C143.125 8.80729 143.078 9.01042 142.984 9.21875C142.901 9.41667 142.786 9.65104 142.641 9.92188C142.547 10.099 142.432 10.3125 142.297 10.5625C142.161 10.8021 142.016 11.0625 141.859 11.3438C141.714 11.6146 141.557 11.901 141.391 12.2031C141.234 12.5052 141.078 12.7969 140.922 13.0781C140.568 13.7448 140.193 14.4479 139.797 15.1875H144.891C145.141 15.1875 145.37 15.2031 145.578 15.2344C145.786 15.2552 145.964 15.3073 146.109 15.3906C146.266 15.4635 146.385 15.5677 146.469 15.7031C146.552 15.8385 146.594 16.0208 146.594 16.25C146.594 16.3646 146.573 16.4792 146.531 16.5938C146.5 16.7083 146.432 16.8125 146.328 16.9062C146.234 17 146.099 17.0781 145.922 17.1406C145.755 17.2031 145.536 17.2448 145.266 17.2656L138.766 17.3125ZM146.844 17.2031C147.479 17.5365 148.047 17.9167 148.547 18.3438C149.047 18.7708 149.469 19.224 149.812 19.7031C150.167 20.1719 150.432 20.651 150.609 21.1406C150.797 21.6302 150.891 22.1094 150.891 22.5781C150.891 23.1719 150.719 23.7083 150.375 24.1875C150.042 24.6562 149.599 25.0573 149.047 25.3906C148.505 25.7135 147.88 25.9583 147.172 26.125C146.474 26.3021 145.766 26.3906 145.047 26.3906C144.505 26.3906 143.979 26.3281 143.469 26.2031C142.958 26.0885 142.49 25.9062 142.062 25.6562C141.646 25.4062 141.286 25.0885 140.984 24.7031C140.682 24.3073 140.469 23.8385 140.344 23.2969C140.323 23.2135 140.312 23.1458 140.312 23.0938C140.312 22.8125 140.411 22.5729 140.609 22.375C140.807 22.1667 141.026 22.0625 141.266 22.0625C141.38 22.0625 141.505 22.0833 141.641 22.125C141.786 22.1667 141.896 22.2604 141.969 22.4062C142.104 22.6562 142.292 22.8802 142.531 23.0781C142.781 23.276 143.057 23.4479 143.359 23.5938C143.661 23.7292 143.979 23.8385 144.312 23.9219C144.656 23.9948 144.99 24.0312 145.312 24.0312C145.646 24.0312 145.964 24 146.266 23.9375C146.578 23.875 146.849 23.776 147.078 23.6406C147.318 23.5052 147.505 23.3333 147.641 23.125C147.776 22.9167 147.844 22.6615 147.844 22.3594C147.844 21.8281 147.724 21.3385 147.484 20.8906C147.245 20.4427 146.932 20.0312 146.547 19.6562C146.172 19.2708 145.74 18.9167 145.25 18.5938C144.771 18.2604 144.292 17.9427 143.812 17.6406C143.76 17.6094 143.682 17.5208 143.578 17.375C143.474 17.2188 143.422 17.0625 143.422 16.9062C143.422 16.7812 143.453 16.6823 143.516 16.6094C143.682 16.3906 143.875 16.1667 144.094 15.9375C144.312 15.7083 144.547 15.5 144.797 15.3125C145.047 15.1146 145.318 14.9583 145.609 14.8438C145.901 14.7188 146.203 14.6562 146.516 14.6562C146.745 14.6562 146.958 14.6875 147.156 14.75C147.354 14.8125 147.521 14.8958 147.656 15C147.792 15.0938 147.896 15.2031 147.969 15.3281C148.052 15.4427 148.094 15.5521 148.094 15.6562C148.094 15.8021 148.057 15.9427 147.984 16.0781C147.911 16.2135 147.812 16.3438 147.688 16.4688C147.573 16.5938 147.438 16.7188 147.281 16.8438C147.135 16.9688 146.99 17.0885 146.844 17.2031Z" fill="#25272D"/>
</svg>
