<svg width="40" height="32" viewBox="0 0 40 32" fill="none" xmlns="http://www.w3.org/2000/svg">
<path d="M12.4391 10.8254C12.4391 10.7413 12.4391 9.51794 12.4391 9.51794H11.7122C11.7122 9.51794 11.7122 10.7223 11.7122 10.7603C11.7122 10.9827 11.506 11.1319 11.1588 11.1319C10.7954 11.1319 10.5973 10.9881 10.5973 10.7576C10.5973 10.7196 10.5973 9.51794 10.5973 9.51794H9.86223C9.86223 9.51794 9.86223 10.6599 9.86223 10.7576C9.86223 11.4031 10.3912 11.6771 11.129 11.6771C11.9183 11.6771 12.4391 11.4004 12.4391 10.8254Z" fill="#868C98"/>
<path d="M14.8873 11.6473V11.0804H13.5908V9.51794H12.8557V11.6473H14.8873Z" fill="#868C98"/>
<path d="M17.072 10.0523V9.51794H14.5304V10.0523H15.4282V11.6473H16.1714V10.0523H17.072Z" fill="#868C98"/>
<path d="M18.0493 11.6473V9.51794H17.3033V11.6473H18.0493Z" fill="#868C98"/>
<path d="M21.4716 11.6473V9.51794H20.552L19.9715 10.7956L19.4182 9.51794H18.4688V11.6473H19.1605V10.4972L19.6596 11.6473H20.2781L20.7826 10.4972V11.6473H21.4716Z" fill="#868C98"/>
<path d="M22.6237 11.2539H23.7738L23.961 11.6473H24.7449L23.6707 9.51794H22.7946L21.6581 11.6473H22.4257L22.6237 11.2539ZM23.5432 10.7765H22.8624L23.1309 10.2639L23.2123 10.0686L23.2883 10.2612L23.5432 10.7765Z" fill="#868C98"/>
<path d="M27.0505 10.0523V9.51794H24.509V10.0523H25.4068V11.6473H26.1501V10.0523H27.0505Z" fill="#868C98"/>
<path d="M29.5222 11.6473V11.1183H27.9956V10.8416H29.4599V10.3236H27.9956V10.0496H29.5034V9.51794H27.2794V11.6473H29.5222Z" fill="#868C98"/>
<path d="M15.4059 12.7792H14.7033C14.7033 12.7792 14.2449 14.1191 14.2449 14.1517C14.2449 14.1191 13.8163 12.7792 13.8163 12.7792H13.0541C13.0541 12.7792 12.6282 14.1191 12.6282 14.1517C12.6282 14.1191 12.1671 12.7792 12.1671 12.7792H11.3778L12.1753 14.9085H12.97C12.97 14.9085 13.3986 13.6363 13.4013 13.6011C13.404 13.6363 13.8299 14.9085 13.8299 14.9085H14.6274L15.4059 12.7792Z" fill="#868C98"/>
<path d="M16.3672 14.9085V12.7792H15.6212V14.9085H16.3672Z" fill="#868C98"/>
<path d="M19.2687 14.9085V12.7792H18.5743V13.9374L17.5517 12.7792H16.7867V14.9085H17.4866V13.7231L18.5417 14.9085H19.2687Z" fill="#868C98"/>
<path d="M22.1746 14.9085V12.7792H21.4802V13.9374L20.4575 12.7792H19.6926V14.9085H20.3924V13.7231L21.4476 14.9085H22.1746Z" fill="#868C98"/>
<path d="M24.8418 14.9085V14.3796H23.3146V14.1029H24.7794V13.5848H23.3146V13.3108H24.8228V12.7792H22.5985V14.9085H24.8418Z" fill="#868C98"/>
<path d="M27.7092 13.4275C27.7092 13.2349 27.6629 13.0965 27.5652 12.9962C27.4378 12.8606 27.2182 12.7792 26.8817 12.7792H25.1865V14.9085H25.9108V14.1572H26.5699L27.099 14.9085H27.9073L27.2646 14.0405C27.408 14.0188 27.525 13.932 27.6006 13.8289C27.6684 13.734 27.7092 13.5929 27.7092 13.4275ZM27.0041 13.4953C27.0041 13.5306 26.9986 13.5739 26.9793 13.6065C26.9523 13.6607 26.8817 13.6825 26.7652 13.6825H25.9135V13.2945H26.7515C26.8657 13.2945 26.9418 13.3135 26.9793 13.3841C26.9986 13.4112 27.0041 13.4546 27.0041 13.4953Z" fill="#868C98"/>
<path d="M12.7449 17.0034C12.7449 16.9686 12.7449 15.963 12.7449 15.963H12.491C12.491 15.963 12.491 16.9645 12.491 16.9871C12.491 17.2287 12.2636 17.366 11.9359 17.366C11.5488 17.366 11.3583 17.2185 11.3583 16.985C11.3583 16.9625 11.3583 15.963 11.3583 15.963H11.1023C11.1023 15.963 11.1023 16.9379 11.1023 16.9768C11.1023 17.4028 11.4341 17.5913 11.9257 17.5913C12.4336 17.5913 12.7449 17.3905 12.7449 17.0034Z" fill="#868C98"/>
<path d="M14.5672 17.5708V17.3353H13.4592V15.963H13.2032V17.5708H14.5672Z" fill="#868C98"/>
<path d="M16.022 16.1964V15.963H14.3138V16.1964H15.0388V17.5708H15.2969V16.1964H16.022Z" fill="#868C98"/>
<path d="M17.8425 16.4176C17.8425 16.3029 17.8179 16.219 17.7749 16.1514C17.6991 16.0387 17.5537 15.963 17.312 15.963H16.2715V17.5708H16.5234V16.8928H17.2567L17.7052 17.5708H18.0002L17.5148 16.8498C17.6376 16.8355 17.7339 16.7658 17.7851 16.6757C17.822 16.6143 17.8425 16.5242 17.8425 16.4176ZM17.5885 16.4381C17.5885 16.4832 17.5783 16.5385 17.5598 16.5754C17.5271 16.6347 17.4513 16.6655 17.3284 16.6675H16.5255C16.5255 16.6634 16.5255 16.1924 16.5255 16.1924H17.2813C17.4349 16.1924 17.5168 16.2292 17.5598 16.2988C17.5783 16.3316 17.5885 16.3869 17.5885 16.4381Z" fill="#868C98"/>
<path d="M18.5714 17.1734H19.573L19.7778 17.5708H20.0523L19.237 15.963H18.936L18.0941 17.5708H18.3624L18.5714 17.1734ZM19.4664 16.9461H18.682L19.0076 16.3296L19.0793 16.1801L19.151 16.3296L19.4664 16.9461Z" fill="#868C98"/>
<path d="M22.6499 17.4172C22.7134 17.3434 22.7421 17.239 22.7421 17.1263C22.7421 17.0198 22.7114 16.9133 22.6479 16.8478C22.5844 16.7863 22.482 16.7351 22.3693 16.7249C22.4349 16.7146 22.4861 16.6737 22.5209 16.6306C22.5762 16.5671 22.6089 16.4647 22.6089 16.3623C22.6089 16.2538 22.5762 16.1554 22.5065 16.0879C22.4308 16.0121 22.3017 15.963 22.1215 15.963H21.04V17.5708H22.2014C22.4185 17.5708 22.57 17.5155 22.6499 17.4172ZM22.3447 16.4135C22.3447 16.4852 22.3222 16.5487 22.2833 16.5856C22.2443 16.6286 22.1788 16.647 22.1092 16.647H21.2899V16.1841H22.0621C22.1563 16.1841 22.228 16.2026 22.2771 16.2476C22.3202 16.2886 22.3447 16.348 22.3447 16.4135ZM22.4266 17.2615C22.3754 17.3189 22.2874 17.3476 22.1583 17.3476H21.2899V16.8703H22.1645C22.2833 16.8703 22.3652 16.8949 22.4144 16.942C22.4594 16.985 22.4779 17.0403 22.4779 17.1038C22.4779 17.1694 22.4636 17.2246 22.4266 17.2615Z" fill="#868C98"/>
<path d="M24.6015 17.5708V17.3353H23.3522V16.8764H24.5524V16.643H23.3522V16.1964H24.5872V15.963H23.1022V17.5708H24.6015Z" fill="#868C98"/>
<path d="M26.6025 17.0956C26.6025 16.8334 26.4287 16.6982 26.0005 16.6491C25.9287 16.6389 25.773 16.6225 25.689 16.6122C25.2916 16.5651 25.1708 16.5119 25.1708 16.3746C25.1708 16.2415 25.3039 16.1657 25.7054 16.1657C26.0166 16.1657 26.1765 16.2272 26.2565 16.3377C26.2792 16.3685 26.2913 16.4054 26.2974 16.434H26.5716C26.5639 16.3869 26.5451 16.3214 26.5164 16.2681C26.4061 16.0777 26.1788 15.9404 25.7054 15.9404C25.1401 15.9383 24.9066 16.1432 24.9066 16.3972C24.9066 16.6511 25.0889 16.7802 25.562 16.8355C25.644 16.8457 25.7893 16.8621 25.8611 16.8703C26.2279 16.9153 26.3426 16.9707 26.3426 17.1243C26.3426 17.2656 26.2113 17.368 25.7914 17.368C25.4473 17.368 25.263 17.3066 25.1892 17.1878C25.1667 17.155 25.1524 17.1038 25.1503 17.069H24.8799C24.8861 17.1427 24.9066 17.2226 24.9434 17.2861C25.05 17.4807 25.2999 17.5933 25.7832 17.5933C26.3608 17.5933 26.6025 17.4069 26.6025 17.0956Z" fill="#868C98"/>
<path d="M28.4392 16.1964V15.963H26.731V16.1964H27.456V17.5708H27.7142V16.1964H28.4392Z" fill="#868C98"/>
<path d="M10.3773 18.9683C10.3773 18.8044 10.3445 18.6938 10.2892 18.6098C10.2114 18.4889 10.0598 18.4255 9.79554 18.4255H8.77965V20.0333H9.0336V19.509C9.0336 19.509 9.75052 19.509 9.78533 19.509C10.0332 19.5069 10.2032 19.4496 10.2933 19.3185C10.3506 19.2386 10.3773 19.1239 10.3773 18.9683ZM10.1192 18.9683C10.1192 19.0501 10.111 19.1116 10.0844 19.1526C10.0372 19.2283 9.94097 19.2755 9.74229 19.2755C9.72387 19.2755 9.0336 19.2755 9.0336 19.2755V18.6549H9.75052C9.93689 18.6549 10.0332 18.6979 10.0844 18.7818C10.1089 18.8187 10.1192 18.8863 10.1192 18.9683Z" fill="#868C98"/>
<path d="M12.2312 20.0333V19.7978H10.9817V19.339H12.182V19.1055H10.9817V18.659H12.2168V18.4255H10.7319V20.0333H12.2312Z" fill="#868C98"/>
<path d="M14.185 18.8802C14.185 18.7654 14.1605 18.6815 14.1175 18.6139C14.0416 18.5012 13.8963 18.4255 13.6546 18.4255H12.6141V20.0333H12.866V19.3554H13.5993L14.0478 20.0333H14.3428L13.8573 19.3123C13.9802 19.298 14.0765 19.2283 14.1277 19.1382C14.1646 19.0768 14.185 18.9867 14.185 18.8802ZM13.9311 18.9006C13.9311 18.9457 13.9208 19.001 13.9024 19.0379C13.8696 19.0973 13.7938 19.128 13.6709 19.13H12.868C12.868 19.1259 12.868 18.6549 12.868 18.6549H13.6238C13.7774 18.6549 13.8594 18.6917 13.9024 18.7614C13.9208 18.7941 13.9311 18.8494 13.9311 18.9006Z" fill="#868C98"/>
<path d="M16.084 18.659V18.4255H14.6543V20.0333H14.9082V19.3492H16.0307V19.1096H14.9082V18.659H16.084Z" fill="#868C98"/>
<path d="M17.2497 18.3968C16.9076 18.3968 16.6721 18.4808 16.5041 18.6569C16.3628 18.7941 16.3014 18.9847 16.3014 19.2243C16.3014 19.4864 16.3812 19.6831 16.5287 19.8162C16.6865 19.9739 16.9281 20.0558 17.2497 20.0558C17.5815 20.0558 17.8396 19.9739 17.9932 19.808C18.1264 19.6728 18.196 19.4803 18.196 19.2222C18.196 18.9723 18.1366 18.7818 17.9953 18.6467C17.8334 18.4787 17.5917 18.3968 17.2497 18.3968ZM17.2497 19.8265C17.0244 19.8265 16.8646 19.7773 16.7438 19.679C16.6209 19.5786 16.5615 19.425 16.5615 19.2283C16.5615 19.044 16.6127 18.8904 16.711 18.7982C16.8237 18.6917 16.9957 18.6282 17.2477 18.6282C17.5078 18.6282 17.6696 18.6897 17.7904 18.7962C17.8929 18.8863 17.9379 19.0461 17.9379 19.2263C17.9379 19.4086 17.8908 19.5643 17.7863 19.6585C17.6655 19.7711 17.4955 19.8265 17.2497 19.8265Z" fill="#868C98"/>
<path d="M20.1177 18.8802C20.1177 18.7654 20.0931 18.6815 20.0501 18.6139C19.9743 18.5012 19.8289 18.4255 19.5873 18.4255H18.5468V20.0333H18.7987V19.3554H19.5319L19.9805 20.0333H20.2754L19.79 19.3123C19.9129 19.298 20.0092 19.2283 20.0604 19.1382C20.0973 19.0768 20.1177 18.9867 20.1177 18.8802ZM19.8637 18.9006C19.8637 18.9457 19.8535 19.001 19.8351 19.0379C19.8023 19.0973 19.7265 19.128 19.6036 19.13H18.8007C18.8007 19.1259 18.8007 18.6549 18.8007 18.6549H19.5565C19.7101 18.6549 19.7921 18.6917 19.8351 18.7614C19.8535 18.7941 19.8637 18.8494 19.8637 18.9006Z" fill="#868C98"/>
<path d="M22.5676 20.0333V18.4255H22.2358L21.5742 19.7486L20.9249 18.4255H20.587V20.0333H20.8307V18.7962L21.437 20.0333H21.7032L22.3239 18.7962V20.0333H22.5676Z" fill="#868C98"/>
<path d="M23.2869 19.636H24.2885L24.4933 20.0333H24.7678L23.9526 18.4255H23.6515L22.8097 20.0333H23.078L23.2869 19.636ZM24.182 19.4086H23.3975L23.7232 18.7921L23.7949 18.6426L23.8665 18.7921L24.182 19.4086Z" fill="#868C98"/>
<path d="M26.613 20.0333V18.4255H26.3691V19.6749L25.3043 18.4255H25.0154V20.0333H25.2633V18.7757L26.3365 20.0333H26.613Z" fill="#868C98"/>
<path d="M28.8226 19.4332H28.5561C28.5479 19.5069 28.5192 19.5807 28.4679 19.636C28.3575 19.765 28.1815 19.8203 27.9112 19.8203C27.6839 19.8203 27.44 19.7568 27.323 19.5909C27.2618 19.5131 27.2226 19.3984 27.2226 19.2263C27.2226 19.0727 27.2497 18.958 27.3087 18.8802C27.4069 18.7225 27.6138 18.6405 27.9051 18.6405C28.1876 18.6405 28.3658 18.7183 28.4601 18.8269C28.5131 18.8842 28.544 18.9519 28.5539 19.0317H28.8204C28.8121 18.9416 28.7834 18.8351 28.7222 18.745C28.5909 18.5504 28.3492 18.3968 27.9068 18.3968C27.4852 18.3968 27.2331 18.532 27.0935 18.7347C27.0036 18.8515 26.9583 19.0153 26.9583 19.2243C26.9583 19.4578 27.0141 19.6298 27.1101 19.7507C27.2497 19.9412 27.5178 20.0558 27.9233 20.0558C28.3393 20.0558 28.587 19.9309 28.7101 19.7322C28.7796 19.636 28.8143 19.5213 28.8226 19.4332Z" fill="#868C98"/>
<path d="M30.6554 20.0333V19.7978H29.4058V19.339H30.6063V19.1055H29.4058V18.659H30.6411V18.4255H29.1559V20.0333H30.6554Z" fill="#868C98"/>
<path d="M11.9238 21.6306L12.2301 22.5733H13.2214L12.4194 23.156L12.7257 24.0987L11.9238 23.5161L11.1218 24.0987L11.4281 23.156L10.6262 22.5733H11.6174L11.9238 21.6306Z" fill="#868C98"/>
<path d="M15.4601 21.6306L15.7726 22.5733H16.7842L15.9659 23.156L16.2784 24.0988L15.4601 23.5161L14.6418 24.0988L14.9543 23.156L14.136 22.5733H15.1475L15.4601 21.6306Z" fill="#868C98"/>
<path d="M18.9684 21.6306L19.281 22.5733H20.2925L19.4742 23.156L19.7868 24.0988L18.9684 23.5161L18.1501 24.0988L18.4627 23.156L17.6443 22.5733H18.6559L18.9684 21.6306Z" fill="#868C98"/>
<path d="M22.4769 21.6306L22.7895 22.5733H23.801L22.9827 23.156L23.2952 24.0988L22.4769 23.5161L21.6586 24.0988L21.9711 23.156L21.1528 22.5733H22.1643L22.4769 21.6306Z" fill="#868C98"/>
<path d="M26.0132 21.6306L26.3194 22.5733H27.3109L26.5087 23.156L26.8149 24.0988L26.0132 23.5161L25.2112 24.0988L25.5176 23.156L24.7156 22.5733H25.7069L26.0132 21.6306Z" fill="#868C98"/>
<path d="M13.6419 5.72479L13.8735 6.43762H14.6231L14.0167 6.87817L14.2483 7.59094L13.6419 7.15045L13.0356 7.59094L13.2672 6.87817L12.6608 6.43762H13.4104L13.6419 5.72479Z" fill="#868C98"/>
<path d="M16.3158 5.72382L16.5521 6.43664H17.3169L16.6982 6.8772L16.9345 7.58997L16.3158 7.14942L15.697 7.58997L15.9334 6.8772L15.3146 6.43664H16.0794L16.3158 5.72382Z" fill="#868C98"/>
<path d="M18.9683 5.72382L19.2046 6.43664H19.9694L19.3507 6.8772L19.587 7.58997L18.9683 7.14942L18.3496 7.58997L18.5859 6.8772L17.9672 6.43664H18.732L18.9683 5.72382Z" fill="#868C98"/>
<path d="M21.6213 5.72382L21.8576 6.43664H22.6224L22.0037 6.8772L22.24 7.58997L21.6213 7.14942L21.0025 7.58997L21.2389 6.8772L20.6201 6.43664H21.3849L21.6213 5.72382Z" fill="#868C98"/>
<path d="M24.2947 5.72382L24.5263 6.43664H25.2758L24.6695 6.8772L24.9011 7.58997L24.2947 7.14942L23.6883 7.58997L23.9199 6.8772L23.3136 6.43664H24.0631L24.2947 5.72382Z" fill="#868C98"/>
<path fill-rule="evenodd" clip-rule="evenodd" d="M2.96629 18.5547C1.94417 12.1597 4.92723 5.83268 10.8991 3.11566L10.9543 3.23682C5.04243 5.92647 2.08403 12.1916 3.09771 18.5337C4.2192 25.5501 9.87956 29.7581 16.8111 29.961L16.8072 30.0941C9.82163 29.8896 4.09931 25.6436 2.96629 18.5547Z" fill="#868C98"/>
<path d="M9.60431 4.74766C8.50069 4.77282 7.20905 5.39516 6.4469 6.29911C7.0581 6.86667 8.0415 6.65685 8.74919 6.54077C9.75923 6.37514 10.8333 6.05425 11.7864 5.60002C11.3945 4.76581 10.3389 4.73094 9.60431 4.74766Z" fill="#868C98"/>
<path d="M8.7364 3.38623C8.08272 4.4045 7.30368 5.41652 6.4559 6.30772C5.74661 5.6419 6.17474 4.53387 6.46423 3.84483C6.98865 2.59627 8.24597 1.51959 9.56045 0.968689C9.92122 1.78949 9.13761 2.76124 8.7364 3.38623Z" fill="#868C98"/>
<path d="M6.4107 7.60315C5.37732 7.97049 4.48932 9.00453 4.04347 10.0427C4.78653 10.3881 5.63128 9.88922 6.24926 9.55702C7.09782 9.10086 7.96353 8.47145 8.64469 7.74307C8.02924 7.09369 7.09473 7.36006 6.4107 7.60315Z" fill="#868C98"/>
<path d="M5.15807 6.58564C4.93186 7.74702 4.5526 8.95077 4.05451 10.0479C3.1851 9.63789 3.2182 8.46349 3.25545 7.71613C3.319 6.44049 4.03266 4.98581 5.02626 4.06134C5.63453 4.71348 5.30218 5.84584 5.15807 6.58564Z" fill="#868C98"/>
<path d="M4.42235 11.2897C3.56127 11.9689 3.03934 13.2278 2.91846 14.3519C3.73302 14.4455 4.38411 13.7042 4.86858 13.1956C5.52817 12.5031 6.15255 11.6346 6.54908 10.726C5.77258 10.3023 4.98323 10.8472 4.42235 11.2897Z" fill="#868C98"/>
<path d="M2.93048 10.7162C3.08402 11.889 3.08435 13.1578 2.93075 14.3535C1.98344 14.2372 1.66924 13.0997 1.48364 12.3862C1.1632 11.1545 1.37804 9.56356 2.00226 8.36621C2.78234 8.79805 2.83238 9.9666 2.93048 10.7162Z" fill="#868C98"/>
<path d="M3.74659 15.3137C3.06521 16.3118 2.8256 17.876 3.13203 19.1332C4.03244 18.9201 4.47879 17.9006 4.83719 17.1807C5.31349 16.2238 5.71608 15.1075 5.8602 14.0123C4.88359 13.809 4.19542 14.6561 3.74659 15.3137Z" fill="#868C98"/>
<path d="M1.95791 15.2128C2.48878 16.4418 2.90307 17.7946 3.14549 19.1302C2.11283 19.3521 1.3696 18.2677 0.937826 17.5487C0.169108 16.2688 -0.0548359 14.4945 0.226764 12.9634C1.17192 13.1529 1.63443 14.4641 1.95791 15.2128Z" fill="#868C98"/>
<path d="M4.22322 19.6563C3.85737 20.8672 4.11166 22.5132 4.8524 23.6515C5.66642 23.1216 5.77908 21.9551 5.89445 21.1187C6.04656 20.0151 6.11817 18.7925 5.92921 17.648C4.88805 17.7809 4.46758 18.8475 4.22322 19.6563Z" fill="#868C98"/>
<path d="M2.4139 20.1747C3.32734 21.2228 4.16993 22.4179 4.86483 23.6437C3.92237 24.2321 2.81644 23.4283 2.14571 22.8595C0.955806 21.8504 0.183172 20.1354 0 18.5185C0.990234 18.3854 1.8629 19.5424 2.4139 20.1747Z" fill="#868C98"/>
<path d="M6.14295 23.7775C6.22146 25.1869 7.13904 26.6658 8.36077 27.5075C8.95079 26.6998 8.58097 25.4621 8.3797 24.5981C8.10875 23.4349 7.73374 22.2237 7.17644 21.1489C6.20464 21.6625 6.09126 22.8493 6.14295 23.7775Z" fill="#868C98"/>
<path d="M4.49975 24.968C5.8234 25.7035 7.14323 26.5714 8.37038 27.495C7.63548 28.4627 6.16657 28.0768 5.256 27.7658C3.65137 27.2176 2.2208 25.7727 1.4736 24.1673C2.42097 23.6793 3.71785 24.5335 4.49975 24.968Z" fill="#868C98"/>
<path d="M9.91278 27.2206C10.7072 28.6704 12.5176 29.6162 14.2224 29.8439C14.4059 28.7899 13.2654 27.7463 12.644 27.0636C11.7592 26.0917 10.8372 25.083 9.80348 24.2426C9.02902 25.1418 9.43846 26.355 9.91278 27.2206Z" fill="#868C98"/>
<path d="M8.7782 29.0581C10.584 29.2458 12.4205 29.5161 14.2253 29.8278C14.053 31.1577 11.9426 31.3723 10.9845 31.4508C9.02013 31.6118 6.83486 30.8222 5.31326 29.4928C6.06901 28.6036 7.81627 28.9581 8.7782 29.0581Z" fill="#868C98"/>
<path d="M12.2565 1.99943C11.0441 2.34531 9.62493 3.00147 8.92386 4.21273C10.1964 4.07403 11.4471 3.62123 12.6702 3.27623C14.0403 2.88975 15.4829 2.6007 16.8093 2.06724C15.3566 1.48605 13.6442 1.60352 12.2565 1.99943Z" fill="#868C98"/>
<path fill-rule="evenodd" clip-rule="evenodd" d="M35.712 18.5337C36.7255 12.1916 33.7672 5.92658 27.8554 3.23682L27.9106 3.11566C33.8825 5.83274 36.8656 12.1597 35.8433 18.5547C34.7106 25.6436 28.9881 29.8896 22.0025 30.0941L21.9987 29.961C28.9302 29.7581 34.5903 25.5501 35.712 18.5337Z" fill="#868C98"/>
<path d="M29.2055 4.74766C30.309 4.77282 31.6006 5.39516 32.363 6.29911C31.7517 6.86667 30.768 6.65685 30.0607 6.54077C29.0505 6.37514 27.9763 6.05425 27.0235 5.60002C27.4152 4.76581 28.4706 4.73094 29.2055 4.74766Z" fill="#868C98"/>
<path d="M30.0734 3.38623C30.7272 4.4045 31.5062 5.41652 32.3536 6.30772C33.0632 5.6419 32.635 4.53387 32.3454 3.84483C31.8212 2.59627 30.5639 1.51959 29.2491 0.968689C28.8883 1.78949 29.6723 2.76124 30.0734 3.38623Z" fill="#868C98"/>
<path d="M32.3995 7.60315C33.4328 7.97049 34.3206 9.00453 34.7664 10.0427C34.0232 10.3881 33.1785 9.88922 32.5606 9.55702C31.712 9.10086 30.8464 8.47145 30.1655 7.74307C30.7807 7.09369 31.7153 7.36006 32.3995 7.60315Z" fill="#868C98"/>
<path d="M33.6519 6.58564C33.8781 7.74702 34.2571 8.95077 34.7553 10.0479C35.6248 9.63789 35.5917 8.46349 35.5542 7.71613C35.4907 6.44049 34.7774 4.98581 33.7837 4.06134C33.1752 4.71348 33.5079 5.84584 33.6519 6.58564Z" fill="#868C98"/>
<path d="M34.3873 11.2897C35.2486 11.9689 35.7705 13.2278 35.8913 14.3519C35.077 14.4455 34.4259 13.7042 33.9415 13.1956C33.2817 12.5031 32.6571 11.6346 32.261 10.726C33.0372 10.3023 33.8268 10.8472 34.3873 11.2897Z" fill="#868C98"/>
<path d="M35.8797 10.7162C35.7258 11.8889 35.7258 13.1578 35.8792 14.3535C36.8265 14.2372 37.141 13.0997 37.3263 12.3862C37.6469 11.1545 37.4317 9.56356 36.8077 8.36621C36.0276 8.79805 35.9774 9.9666 35.8797 10.7162Z" fill="#868C98"/>
<path d="M35.0632 15.3137C35.7446 16.3118 35.984 17.876 35.6778 19.1332C34.7774 18.9201 34.331 17.9007 33.9724 17.1807C33.4963 16.2238 33.0935 15.1075 32.9495 14.0123C33.9261 13.809 34.6146 14.6561 35.0632 15.3137Z" fill="#868C98"/>
<path d="M36.8519 15.2128C36.3211 16.4418 35.9068 17.7946 35.6646 19.1302C36.6968 19.3521 37.44 18.2677 37.872 17.5487C38.6405 16.2688 38.8646 14.4945 38.5832 12.9634C37.6381 13.1529 37.1752 14.4641 36.8519 15.2128Z" fill="#868C98"/>
<path d="M34.5865 19.6563C34.9523 20.8672 34.6985 22.5132 33.9575 23.6515C33.1437 23.1216 33.0306 21.9551 32.9153 21.1187C32.7636 20.0151 32.6919 18.7925 32.8805 17.648C33.9216 17.7809 34.3421 18.8475 34.5865 19.6563Z" fill="#868C98"/>
<path d="M36.3956 20.1747C35.4825 21.2229 34.64 22.4179 33.9448 23.6437C34.8872 24.2321 35.9934 23.4283 36.6643 22.8595C37.8538 21.8504 38.6268 20.1354 38.8099 18.5185C37.8196 18.3854 36.9468 19.5424 36.3956 20.1747Z" fill="#868C98"/>
<path d="M32.6665 23.7775C32.5881 25.1869 31.6706 26.6658 30.4491 27.5075C29.8588 26.6998 30.229 25.4621 30.4298 24.5981C30.7007 23.4349 31.0759 22.2237 31.6331 21.1489C32.6052 21.6625 32.7183 22.8493 32.6665 23.7775Z" fill="#868C98"/>
<path d="M34.3101 24.968C32.9865 25.7035 31.6668 26.5714 30.4397 27.495C31.1746 28.4627 32.6433 28.0768 33.5537 27.7658C35.1586 27.2176 36.5892 25.7727 37.3363 24.1673C36.389 23.6793 35.0919 24.5335 34.3101 24.968Z" fill="#868C98"/>
<path d="M28.8971 27.2206C28.1026 28.6704 26.2924 29.6162 24.5874 29.8439C24.4039 28.7899 25.5443 27.7463 26.1661 27.0636C27.0505 26.0917 27.9724 25.083 29.0063 24.2426C29.781 25.1418 29.371 26.355 28.8971 27.2206Z" fill="#868C98"/>
<path d="M30.0314 29.0581C28.2257 29.2458 26.3895 29.5161 24.5844 29.8278C24.7567 31.1577 26.8673 31.3723 27.8251 31.4508C29.7898 31.6118 31.9752 30.8222 33.4963 29.4928C32.741 28.6036 30.9937 28.9581 30.0314 29.0581Z" fill="#868C98"/>
<path d="M26.5534 1.99943C27.7655 2.34531 29.1851 3.00147 29.8858 4.21273C28.6135 4.07403 27.3627 3.62123 26.1396 3.27623C24.7695 2.88975 23.3269 2.6007 22.0005 2.06724C23.4532 1.48605 25.1656 1.60352 26.5534 1.99943Z" fill="#868C98"/>
<path d="M20.1933 1.37263L19.5713 0L18.9609 1.34709L17.5414 0.466979L18.4535 2.38383H20.722L21.6012 0.466979L20.1933 1.37263Z" fill="#868C98"/>
<path d="M20.7074 2.6817H18.4354V3.01698H20.7074V2.6817Z" fill="#868C98"/>
<path d="M19.7337 28.6189L20.0999 29.7456H21.2846L20.3261 30.442L20.6922 31.5687L19.7337 30.8724L18.7753 31.5687L19.1414 30.442L18.183 29.7456H19.3677L19.7337 28.6189Z" fill="#868C98"/>
</svg>
