<svg width="67" height="32" viewBox="0 0 67 32" fill="none" xmlns="http://www.w3.org/2000/svg">
<g clip-path="url(#clip0)">
<path d="M3.42551 6.24892C2.99297 5.14962 3.18075 3.88562 3.57918 2.82254C3.99838 1.7039 4.72832 0.588323 5.81932 0C5.87345 1.17883 5.51334 2.34349 5.11988 3.3937C4.76604 4.33832 4.33186 5.34468 3.61493 6.12589C3.50476 6.71782 3.42034 7.30812 3.36097 7.89569C3.59859 7.27496 3.98388 6.70918 4.46463 6.25423C5.08359 5.66843 6.0043 5.21641 6.86858 5.48371C6.61544 6.43908 6.03842 7.35489 5.35505 7.99735C4.81717 8.50301 4.10711 9.15098 3.27076 9.17644C3.23631 10.0411 3.25578 10.8979 3.32693 11.743C3.44492 11.1246 3.69772 10.5422 4.06299 10.1085C4.56478 9.51251 5.30882 8.78441 6.25901 8.90621C6.20713 9.87316 5.82143 10.8639 5.2843 11.6083C4.85748 12.1999 4.29401 12.9539 3.49421 13.1487C3.62228 13.9791 3.80066 14.7958 4.02698 15.5949C4.02916 14.983 4.16431 14.3824 4.43243 13.9007C4.8103 13.2214 5.39882 12.3743 6.35011 12.3081C6.48955 13.2567 6.30061 14.2937 5.91947 15.1185C5.61486 15.7778 5.20873 16.6185 4.46844 16.9663C4.77932 17.8261 5.14718 18.6619 5.56897 19.4685C5.42088 18.7732 5.42681 18.0406 5.60206 17.3814C5.84356 16.4726 6.44305 15.518 7.4055 15.2409C7.74572 16.2442 7.69881 17.3639 7.50116 18.3837C7.3385 19.2234 7.01891 20.2095 6.30252 20.7549C6.77088 21.5107 7.289 22.2361 7.85404 22.9263C7.55045 22.2494 7.39957 21.5091 7.48053 20.8313C7.59845 19.8439 7.8759 18.7877 8.88444 18.2612C9.45663 19.2485 9.58919 20.356 9.6378 21.4499C9.67709 22.3343 9.5497 23.4251 8.9355 24.1445C9.61111 24.847 10.3401 25.5044 11.1187 26.1106C10.6161 25.4658 10.2641 24.7091 10.1895 23.9608C10.0842 22.9035 10.1357 21.7396 11.074 20.9637C11.8764 21.8018 12.3553 23.0361 12.59 24.1082C12.7975 25.0561 13.0141 26.178 12.5201 27.1108C13.511 27.7576 14.5688 28.3275 15.6872 28.8101C14.9002 28.2493 14.256 27.4798 13.9491 26.6854C13.5469 25.644 13.2981 24.4032 14.0816 23.3603C15.1313 24.0326 15.9027 25.1797 16.5105 26.2259C17.0321 27.1236 17.5719 28.3626 17.3041 29.4318C17.9233 29.6419 18.5585 29.8264 19.2089 29.9838L19.1703 30.1435C18.5174 29.9854 17.8797 29.8003 17.258 29.5896C16.8223 30.8769 15.3954 31.3021 14.2413 31.4899C12.597 31.7574 10.6391 31.2391 9.23528 30.1949C9.97619 29.1478 11.4879 29.0416 12.6278 28.9615L12.6426 28.9605C13.8914 28.8727 15.242 28.99 16.4977 29.3162C15.047 28.764 13.6896 28.0696 12.4379 27.2534L12.4195 27.2825C11.7336 28.3947 10.3565 28.4381 9.27559 28.3677C7.80883 28.2723 6.11542 27.3804 5.13533 26.1476C6.05721 25.3388 7.41884 25.5651 8.47389 25.7405L8.47899 25.7413C9.65653 25.9371 10.9433 26.3641 12.0234 27.0216C11.9205 26.9406 11.8198 26.8549 11.722 26.765C10.6718 26.0163 9.7031 25.1788 8.82405 24.2656C8.81384 24.2758 8.80349 24.286 8.79307 24.296C7.93833 25.1559 6.69346 24.9307 5.72195 24.6509C4.42187 24.2764 3.07358 23.1467 2.42745 21.8497C3.42871 21.2887 4.62579 21.751 5.55692 22.1167C6.57888 22.5181 7.66014 23.1601 8.49152 23.9786C8.4058 23.8704 8.32403 23.7575 8.24676 23.6406C7.47399 22.7684 6.77884 21.8345 6.16771 20.8492L6.13707 20.8684C5.17013 21.4924 4.07457 21.0405 3.20628 20.5962C2.02902 19.9937 1.08298 18.6695 0.674194 17.3674C1.71855 17.0329 2.75038 17.6894 3.55249 18.2094C4.42977 18.778 5.31841 19.589 5.92839 20.5191C5.88359 20.4275 5.84185 20.3338 5.80339 20.2384C5.21731 19.2159 4.7194 18.1424 4.31634 17.0289L4.29557 17.036L4.29387 17.0366C3.41469 17.3708 2.43562 16.8512 1.79733 16.2813C0.910178 15.4894 0.284882 14.2718 0.138295 13.0823C1.05492 12.9635 1.91852 13.6727 2.50895 14.2776C3.18858 14.9738 3.79855 15.7966 4.17357 16.7105C4.1462 16.6112 4.1227 16.5104 4.10296 16.4085C3.76172 15.3621 3.5032 14.283 3.33278 13.1797L3.3195 13.1813L3.31501 13.1821C2.38551 13.3373 1.52614 12.6306 1.01271 11.9448C0.292373 10.9824 -0.0789645 9.65045 0.0141078 8.44323C0.939997 8.50798 1.64502 9.3888 2.10221 10.1013C2.63137 10.9262 3.07018 11.8597 3.26238 12.8363C3.25653 12.7586 3.25305 12.6804 3.25183 12.6021C3.11069 11.4792 3.06037 10.3333 3.1064 9.17331L3.10374 9.17317C2.15872 9.13913 1.4603 8.26172 1.09973 7.48344C0.583777 6.3697 0.500713 4.96191 0.845087 3.77546C1.74579 4.02826 2.24791 5.06145 2.54429 5.85675C2.88601 6.77372 3.12451 7.77382 3.12642 8.76814C3.17557 7.93396 3.27457 7.09317 3.42551 6.24892Z" fill="#868C98"/>
<path d="M22.0381 4.19092V8.17376C22.0381 9.92552 20.4515 10.7683 18.047 10.7683C15.7994 10.7683 14.1881 9.93383 14.1881 7.96719V4.19092H16.4274V7.96719C16.4274 8.66956 17.0306 9.10748 18.1379 9.10748C19.1956 9.10748 19.8236 8.65301 19.8236 7.97543V4.19092H22.0381Z" fill="#868C98"/>
<path d="M29.4961 8.95048V10.6775H23.307V4.19092H25.5463V8.95048H29.4961Z" fill="#868C98"/>
<path d="M36.151 5.81876V4.19092H28.4084V5.81876H31.1436V10.6775H33.4077V5.81876H36.151Z" fill="#868C98"/>
<path fill-rule="evenodd" clip-rule="evenodd" d="M44.0939 4.85202C44.3914 5.15773 44.5324 5.57917 44.5324 6.16579C44.5324 6.6699 44.4085 7.09958 44.2015 7.38874C43.97 7.70275 43.6146 7.96719 43.1768 8.0333L45.1356 10.6775H42.673L41.0614 8.38857H39.0537V10.6775H36.8474V4.19092H42.0119C43.0366 4.19092 43.7058 4.43882 44.0939 4.85202ZM42.3094 6.71123C42.3673 6.61203 42.3836 6.4798 42.3836 6.37243C42.3836 6.24845 42.3673 6.11623 42.3094 6.03364C42.1937 5.81877 41.9622 5.76096 41.6149 5.76096H39.0619V6.94258H41.6565C42.0119 6.94258 42.227 6.87647 42.3094 6.71123Z" fill="#868C98"/>
<path fill-rule="evenodd" clip-rule="evenodd" d="M48.1164 9.47936H51.6201L52.19 10.6775H54.5784L51.3062 4.19092H48.6373L45.1752 10.6775H47.5132L48.1164 9.47936ZM50.9175 8.025H48.8436L49.662 6.46333L49.9098 5.86833L50.1413 6.45502L50.9175 8.025Z" fill="#868C98"/>
<path fill-rule="evenodd" clip-rule="evenodd" d="M43.8577 11.8991C42.4715 11.8991 41.7423 12.5561 41.7423 13.5216C41.7423 14.6113 42.5076 15.1641 43.8577 15.1641C45.344 15.1641 45.969 14.5231 45.969 13.5216C45.969 12.504 45.2637 11.8991 43.8577 11.8991ZM43.8577 14.3589C43.0686 14.3589 42.8398 14.0344 42.8398 13.5336C42.8398 13.0409 43.0884 12.7164 43.8536 12.7164C44.6911 12.7164 44.879 13.0809 44.879 13.5336C44.879 14.0144 44.6509 14.3589 43.8577 14.3589Z" fill="#868C98"/>
<path d="M39.6877 15.116V13.2532H37.5966V13.9302H38.7143C38.7063 13.9823 38.6662 14.0824 38.6141 14.1425C38.498 14.2787 38.1895 14.3989 37.7888 14.3989C37.3722 14.3989 37.1038 14.2907 36.9596 14.1225C36.8635 13.9983 36.8074 13.822 36.8074 13.5576C36.8074 13.2812 36.8635 13.093 36.9716 12.9688C37.1279 12.7925 37.3922 12.7164 37.7809 12.7164C38.1294 12.7164 38.3697 12.7965 38.482 12.8966C38.5541 12.9567 38.6101 13.0409 38.6221 13.0969H39.6597C39.6557 12.9968 39.6237 12.8366 39.5676 12.7204C39.3192 12.2156 38.7423 11.9152 37.7609 11.9152C36.9075 11.9152 36.3347 12.1755 36.0182 12.5682C35.8099 12.8366 35.7137 13.173 35.7137 13.5496C35.7137 13.9663 35.8259 14.3228 36.0102 14.5592C36.3226 14.9638 36.8795 15.164 37.5485 15.164C38.1374 15.164 38.542 15.0239 38.7984 14.8116L38.8265 15.116H39.6877Z" fill="#868C98"/>
<path d="M28.775 13.2132C29.5882 13.3013 29.9367 13.5897 29.9367 14.1386C29.9367 14.8036 29.2878 15.1641 28.0098 15.1641C26.82 15.1641 26.3073 14.8276 26.1109 14.3869C26.0669 14.2828 26.0468 14.1546 26.0348 14.0744H27.1886C27.1966 14.1225 27.2246 14.1946 27.2647 14.2427C27.3608 14.3589 27.6292 14.427 28.0859 14.427C28.6749 14.427 28.815 14.3428 28.815 14.1866C28.815 14.0183 28.6708 13.9823 28.138 13.9262C27.9257 13.9062 27.5892 13.8741 27.449 13.8621C26.4315 13.77 26.0549 13.4535 26.0549 12.9127C26.0549 12.3518 26.7199 11.9232 27.9337 11.9232C29.0113 11.9232 29.5121 12.2437 29.7204 12.6443C29.7845 12.7645 29.8245 12.9006 29.8366 12.9968H28.6828C28.6788 12.9527 28.6628 12.9087 28.6188 12.8526C28.5306 12.7364 28.3062 12.6603 27.9056 12.6603C27.3408 12.6603 27.1926 12.7284 27.1926 12.8726C27.1926 13.0329 27.3809 13.069 28.0098 13.137C28.2542 13.1571 28.6428 13.1971 28.775 13.2132Z" fill="#868C98"/>
<path fill-rule="evenodd" clip-rule="evenodd" d="M17.2736 12.2396C17.4859 12.4079 17.6061 12.6923 17.6061 13.1049C17.6061 13.4415 17.522 13.6938 17.3617 13.8701C17.1454 14.1185 16.7889 14.2307 16.3242 14.2347C16.1799 14.2387 14.9461 14.2347 14.9461 14.2347V15.116H13.8684V11.9713H16.3081C16.7408 11.9713 17.0693 12.0594 17.2736 12.2396ZM16.4764 13.3493C16.5084 13.2933 16.5245 13.2211 16.5245 13.1209C16.5245 13.0168 16.5044 12.9287 16.4684 12.8806C16.4003 12.7804 16.2721 12.7324 16.0637 12.7324H14.938V13.5015H16.0557C16.2801 13.5015 16.4123 13.4494 16.4764 13.3493Z" fill="#868C98"/>
<path fill-rule="evenodd" clip-rule="evenodd" d="M21.5482 12.2917C21.6925 12.4399 21.7606 12.6443 21.7606 12.9287C21.7606 13.173 21.7005 13.3814 21.6003 13.5215C21.4882 13.6738 21.3159 13.802 21.1036 13.8341L22.053 15.116H20.8592L20.078 14.0063H19.1045V15.116H18.0349V11.9713H20.5387C21.0355 11.9713 21.36 12.0914 21.5482 12.2917ZM20.6829 13.1931C20.711 13.145 20.719 13.0809 20.719 13.0288C20.719 12.9688 20.711 12.9046 20.6829 12.8646C20.6268 12.7604 20.5147 12.7324 20.3465 12.7324H19.1085V13.3052H20.3665C20.5387 13.3052 20.6429 13.2732 20.6829 13.1931Z" fill="#868C98"/>
<path d="M25.71 15.116V14.3348H23.4546V13.9262H25.6179V13.161H23.4546V12.7564H25.6819V11.9713H22.397V15.116H25.71Z" fill="#868C98"/>
<path d="M33.8351 12.7604V11.9713H30.0814V12.7604H31.4074V15.116H32.505V12.7604H33.8351Z" fill="#868C98"/>
<path d="M35.2784 11.9713V15.116H34.1768V11.9713H35.2784Z" fill="#868C98"/>
<path d="M41.3072 11.9713V15.116H40.2053V11.9713H41.3072Z" fill="#868C98"/>
<path d="M50.2195 11.9713V13.9021C50.2195 14.7514 49.4502 15.1601 48.2846 15.1601C47.1952 15.1601 46.4136 14.7555 46.4136 13.802V11.9713H47.4995V13.802C47.4995 14.1425 47.7916 14.3548 48.3288 14.3548C48.8415 14.3548 49.1458 14.1345 49.1458 13.806V11.9713H50.2195Z" fill="#868C98"/>
<path d="M54.5444 14.1386C54.5444 13.5897 54.1958 13.3013 53.3829 13.2132C53.2501 13.1971 52.862 13.1571 52.6176 13.137C51.9885 13.069 51.7999 13.0329 51.7999 12.8726C51.7999 12.7284 51.9483 12.6603 52.5134 12.6603C52.9138 12.6603 53.1385 12.7364 53.2263 12.8526C53.2705 12.9087 53.2862 12.9527 53.2903 12.9968H54.4443C54.4321 12.9006 54.3919 12.7645 54.3279 12.6443C54.1196 12.2437 53.6191 11.9232 52.5414 11.9232C51.3274 11.9232 50.6622 12.3518 50.6622 12.9127C50.6622 13.4535 51.0394 13.77 52.0566 13.8621L52.1219 13.8679L52.2309 13.8779L52.7456 13.9262C53.2787 13.9823 53.4224 14.0183 53.4224 14.1866C53.4224 14.3428 53.2828 14.427 52.6939 14.427C52.237 14.427 51.9688 14.3589 51.8721 14.2427C51.8326 14.1946 51.804 14.1225 51.7965 14.0744H50.6425C50.6547 14.1546 50.6745 14.2828 50.7187 14.3869C50.9148 14.8276 51.4275 15.1641 52.6176 15.1641C53.8956 15.1641 54.5444 14.8036 54.5444 14.1386Z" fill="#868C98"/>
<path fill-rule="evenodd" clip-rule="evenodd" d="M26.5305 16.3201C25.6296 16.3201 25.1558 16.7471 25.1558 17.3746C25.1558 18.0827 25.6531 18.442 26.5305 18.442C27.4965 18.442 27.9026 18.0255 27.9026 17.3746C27.9026 16.7133 27.4444 16.3201 26.5305 16.3201ZM26.5305 17.9187C26.0176 17.9187 25.8692 17.7078 25.8692 17.3823C25.8692 17.0621 26.0306 16.8512 26.5279 16.8512C27.072 16.8512 27.1944 17.0881 27.1944 17.3823C27.1944 17.6948 27.046 17.9187 26.5305 17.9187Z" fill="#868C98"/>
<path d="M21.5207 17.7756C21.5207 17.4189 21.2942 17.2313 20.7656 17.1741C20.6797 17.1637 20.4272 17.1377 20.2683 17.1247C19.8596 17.0803 19.7372 17.0569 19.7372 16.9528C19.7372 16.8591 19.8336 16.8148 20.2007 16.8148C20.461 16.8148 20.6068 16.8642 20.6641 16.9397C20.6927 16.9762 20.7031 17.0048 20.7058 17.0335H21.4556C21.4478 16.971 21.4218 16.8825 21.3801 16.8044C21.2447 16.544 20.9192 16.3358 20.2189 16.3358C19.43 16.3358 18.9978 16.6143 18.9978 16.9788C18.9978 17.3303 19.2425 17.536 19.9038 17.5959C19.995 17.6037 20.2137 17.6245 20.3517 17.6375C20.698 17.674 20.7917 17.6975 20.7917 17.8068C20.7917 17.9083 20.7006 17.963 20.3178 17.963C20.021 17.963 19.8466 17.9187 19.7841 17.8432C19.7581 17.812 19.7398 17.7651 19.7346 17.7339H18.9847C18.9926 17.786 19.0056 17.8692 19.0342 17.937C19.1618 18.2233 19.4951 18.442 20.2683 18.442C21.0989 18.442 21.5207 18.2078 21.5207 17.7756Z" fill="#868C98"/>
<path fill-rule="evenodd" clip-rule="evenodd" d="M16.3221 17.8328C16.3221 17.9734 16.283 18.1114 16.205 18.2025C16.0852 18.3484 15.8613 18.4108 15.5723 18.4108H13.7576V16.3669H15.5228C15.804 16.3669 15.9837 16.4347 16.0826 16.5362C16.1711 16.6247 16.2102 16.7419 16.2102 16.8747C16.2102 17.0075 16.1789 17.1168 16.1113 17.1975C16.0565 17.2653 15.9628 17.3173 15.8639 17.3303C16.0097 17.3485 16.1477 17.4214 16.2258 17.523C16.2909 17.5985 16.3221 17.7131 16.3221 17.8328ZM15.4447 17.1168C15.4707 17.0882 15.4864 17.0465 15.4864 16.9971C15.4864 16.9476 15.4707 16.9059 15.4369 16.8773C15.4005 16.8434 15.3327 16.8304 15.2338 16.8304H14.4397V17.1637H15.252C15.3405 17.1637 15.4083 17.1507 15.4447 17.1168ZM15.3275 17.9474C15.4499 17.9474 15.5228 17.9317 15.5645 17.8927C15.5905 17.8667 15.6009 17.8276 15.6009 17.7781C15.6009 17.7261 15.5879 17.687 15.5566 17.6558C15.5176 17.622 15.4499 17.6063 15.3354 17.6063H14.4397V17.9474H15.3275Z" fill="#868C98"/>
<path d="M18.7738 17.9031V18.4108H16.6206V16.3669H18.7555V16.8773H17.3079V17.1403H18.7139V17.6375H17.3079V17.9031H18.7738Z" fill="#868C98"/>
<path d="M24.0543 16.3669V16.8799H23.1899V18.4108H22.4766V16.8799H21.6147V16.3669H24.0543Z" fill="#868C98"/>
<path d="M30.2851 16.3669V16.8851H28.8974V17.1741H30.22V17.687H28.8974V18.4108H28.197V16.3669H30.2851Z" fill="#868C98"/>
<path d="M33.8127 16.8799V16.3669H31.3732V16.8799H32.235V18.4108H32.9484V16.8799H33.8127Z" fill="#868C98"/>
<path d="M36.4746 16.3669V18.4108H35.7768V17.6688H34.7301V18.4108H34.0323V16.3669H34.7301V17.1116H35.7768V16.3669H36.4746Z" fill="#868C98"/>
<path d="M39.0409 18.4108V17.9031H37.575V17.6375H38.981V17.1403H37.575V16.8773H39.0226V16.3669H36.8877V18.4108H39.0409Z" fill="#868C98"/>
<path d="M43.3573 16.3669H44.0314L43.2845 18.4108H42.5192C42.5192 18.4108 42.11 17.1898 42.1073 17.1558C42.1052 17.1898 41.6933 18.4108 41.6933 18.4108H40.9308L40.1653 16.3669H40.9226C40.9226 16.3669 41.3658 17.6531 41.3658 17.6844C41.3658 17.6531 41.7743 16.3669 41.7743 16.3669H42.5063C42.5063 16.3669 42.9175 17.6531 42.9175 17.6844C42.9175 17.6531 43.3573 16.3669 43.3573 16.3669Z" fill="#868C98"/>
<path fill-rule="evenodd" clip-rule="evenodd" d="M45.3685 16.3201C44.4678 16.3201 43.9939 16.7471 43.9939 17.3746C43.9939 18.0827 44.4909 18.442 45.3685 18.442C46.3347 18.442 46.7405 18.0255 46.7405 17.3746C46.7405 16.7133 46.2822 16.3201 45.3685 16.3201ZM45.3685 17.9187C44.8559 17.9187 44.7074 17.7078 44.7074 17.3823C44.7074 17.0621 44.8688 16.8512 45.3658 16.8512C45.9105 16.8512 46.0324 17.0881 46.0324 17.3823C46.0324 17.6948 45.8839 17.9187 45.3685 17.9187Z" fill="#868C98"/>
<path fill-rule="evenodd" clip-rule="evenodd" d="M49.3189 16.5753C49.4121 16.6716 49.4564 16.8044 49.4564 16.9892C49.4564 17.1481 49.4176 17.2834 49.3522 17.3746C49.2794 17.4735 49.1677 17.5569 49.0295 17.5776L49.6463 18.4108H48.8709L48.3629 17.6896H47.7304V18.4108H47.0353V16.3669H48.6625C48.9852 16.3669 49.1963 16.4451 49.3189 16.5753ZM48.7565 17.1611C48.7742 17.1298 48.7796 17.0882 48.7796 17.0543C48.7796 17.0153 48.7742 16.9737 48.7565 16.9476C48.7197 16.8799 48.6469 16.8617 48.5372 16.8617H47.7332V17.234H48.5502C48.6625 17.234 48.7299 17.2132 48.7565 17.1611Z" fill="#868C98"/>
<path d="M51.8202 18.4108V17.8667H50.5756V16.3669H49.8702V18.4108H51.8202Z" fill="#868C98"/>
<path fill-rule="evenodd" clip-rule="evenodd" d="M54.5812 17.3511C54.5812 17.6688 54.5498 17.8406 54.4566 18.0021C54.3156 18.2598 54.0372 18.4108 53.5449 18.4108H52.0974V16.3669H53.5292C54.0188 16.3669 54.3081 16.505 54.4511 16.7419C54.5526 16.9007 54.5812 17.0699 54.5812 17.3511ZM53.4121 17.9083C53.6334 17.9083 53.7587 17.8562 53.8343 17.7417C53.8812 17.6714 53.8942 17.5074 53.8942 17.3642C53.8915 17.234 53.8758 17.096 53.8343 17.0335C53.7532 16.9111 53.6314 16.8669 53.4176 16.8669H52.7953V17.9083H53.4121Z" fill="#868C98"/>
<path d="M26.6519 28.351H25.573C25.573 28.351 24.869 30.4088 24.869 30.4588C24.869 30.4088 24.2108 28.351 24.2108 28.351H23.0403C23.0403 28.351 22.3862 30.4088 22.3862 30.4588C22.3862 30.4088 21.6781 28.351 21.6781 28.351H20.4658L21.6905 31.621H22.9111C22.9111 31.621 23.5693 29.6673 23.5734 29.6132C23.5776 29.6673 24.2316 31.621 24.2316 31.621H25.4563L26.6519 28.351Z" fill="#868C98"/>
<path d="M28.1283 31.621V28.351H26.9827V31.621H28.1283Z" fill="#868C98"/>
<path d="M32.5841 28.351V31.621H31.4676L29.8472 29.8006V31.621H28.7725V28.351H29.9471L31.5176 30.1297V28.351H32.5841Z" fill="#868C98"/>
<path d="M37.0467 31.621V28.351H35.9803V30.1297L34.4098 28.351H33.2351V31.621H34.3098V29.8006L35.9303 31.621H37.0467Z" fill="#868C98"/>
<path d="M41.1431 30.8087V31.621H37.6978V28.351H41.1139V29.1674H38.7975V29.5882H41.0471V30.3838H38.7975V30.8087H41.1431Z" fill="#868C98"/>
<path fill-rule="evenodd" clip-rule="evenodd" d="M45.5462 29.3466C45.5462 29.0508 45.4754 28.8384 45.3256 28.6842C45.1295 28.476 44.7925 28.351 44.2757 28.351H41.6721V31.621H42.7846V30.4671H43.7971L44.6093 31.621H45.8505L44.8633 30.288C45.0839 30.2547 45.2629 30.1214 45.38 29.9631C45.4835 29.8173 45.5462 29.6007 45.5462 29.3466ZM44.4629 29.4507C44.4629 29.5049 44.4548 29.5715 44.4255 29.6215C44.3839 29.7048 44.2757 29.7381 44.0966 29.7381H42.7887V29.1424H44.0755C44.2505 29.1424 44.3676 29.1716 44.4255 29.2799C44.4548 29.3216 44.4629 29.3882 44.4629 29.4507Z" fill="#868C98"/>
<path d="M23.3256 22.5817L22.8739 21.1913L22.4221 22.5817H20.9601L22.1429 23.441L21.6911 24.8315L22.8739 23.9722L24.0566 24.8315L23.6048 23.441L24.7876 22.5817H23.3256Z" fill="#868C98"/>
<path d="M28.0895 21.1904L28.5505 22.5808H30.0424L28.8355 23.4402L29.2965 24.8305L28.0895 23.9712L26.8827 24.8305L27.3437 23.4402L26.1367 22.5808H27.6285L28.0895 21.1904Z" fill="#868C98"/>
<path d="M33.7246 22.5808L33.2637 21.1904L32.8027 22.5808H31.3108L32.5177 23.4402L32.0567 24.8305L33.2637 23.9712L34.4706 24.8305L34.0095 23.4402L35.2165 22.5808H33.7246Z" fill="#868C98"/>
<path d="M38.438 21.1904L38.899 22.5808H40.3909L39.184 23.4402L39.645 24.8305L38.438 23.9712L37.2312 24.8305L37.6922 23.4402L36.4852 22.5808H37.9771L38.438 21.1904Z" fill="#868C98"/>
<path d="M44.1056 22.5808L43.6535 21.1904L43.2014 22.5808H41.7396L42.9223 23.4402L42.4709 24.8305L43.6535 23.9712L44.8361 24.8305L44.3847 23.4402L45.5674 22.5808H44.1056Z" fill="#868C98"/>
<path d="M63.0727 6.27909C63.505 5.17985 63.3171 3.91571 62.9188 2.85263C62.4994 1.73406 61.7695 0.618353 60.6788 0.0300293C60.6243 1.20892 60.9845 2.37352 61.378 3.42373C61.7321 4.36828 62.1658 5.37457 62.8827 6.15571C62.993 6.74751 63.0774 7.33767 63.1367 7.92511C62.899 7.30465 62.5144 6.73913 62.0337 6.28433C61.4148 5.69845 60.4936 5.24651 59.6296 5.51381C59.8829 6.46911 60.4596 7.38499 61.1431 8.02744C61.681 8.53311 62.3911 9.18101 63.2272 9.20654C63.262 10.0713 63.2422 10.9281 63.1707 11.7733C63.0529 11.1549 62.8003 10.5725 62.4347 10.1388C61.9329 9.54274 61.1888 8.81471 60.239 8.93651C60.2907 9.90346 60.6768 10.8942 61.214 11.6386C61.6402 12.2302 62.2039 12.9842 63.0039 13.179C62.8759 14.0093 62.6975 14.8259 62.4708 15.6249C62.4688 15.0131 62.3339 14.4125 62.0657 13.9308C61.6878 13.2516 61.0989 12.4044 60.1477 12.3382C60.0082 13.2868 60.1974 14.3238 60.5787 15.1486C60.8831 15.8079 61.2895 16.6486 62.0296 16.9964C61.7185 17.8563 61.3508 18.6923 60.9287 19.499C61.0771 18.8036 61.071 18.0708 60.896 17.4114C60.6543 16.5026 60.0551 15.5479 59.0924 15.2709C58.752 16.2744 58.799 17.394 58.9971 18.4138C59.1598 19.2535 59.4791 20.2396 60.1954 20.785C59.727 21.5412 59.2088 22.267 58.6431 22.9575C58.9474 22.2803 59.0979 21.5396 59.0168 20.8616C58.8991 19.874 58.6219 18.8178 57.6136 18.2915C57.041 19.2788 56.9082 20.3863 56.8599 21.4802C56.8204 22.3647 56.9477 23.4555 57.5625 24.175C56.8865 24.8773 56.1579 25.5345 55.3797 26.1406C55.8822 25.4958 56.2342 24.7391 56.3084 23.9909C56.4139 22.9336 56.3629 21.7697 55.424 20.9938C54.6219 21.8319 54.1426 23.0662 53.9084 24.1383C53.7008 25.0861 53.4842 26.2081 53.9779 27.1409C52.9872 27.7878 51.9292 28.3578 50.8105 28.8405C51.5976 28.2796 52.2417 27.5101 52.5488 26.7155C52.9511 25.6742 53.1997 24.4333 52.4167 23.3904C51.3668 24.0627 50.5954 25.2097 49.9874 26.256C49.4659 27.1538 48.9259 28.3929 49.1942 29.462C48.5746 29.6721 47.9394 29.8566 47.2892 30.014L47.328 30.1737C47.9802 30.0157 48.6182 29.8305 49.2398 29.6198C49.6756 30.907 51.1026 31.3324 52.2567 31.5201C53.9009 31.7876 55.8591 31.2694 57.263 30.2252C56.5215 29.1781 55.01 29.0719 53.8703 28.9917L53.8553 28.9907C52.6066 28.903 51.2558 29.0202 50.0003 29.3465C51.4505 28.7943 52.8082 28.0998 54.0602 27.2835L54.0773 27.3107C54.7629 28.4247 56.1409 28.4683 57.2221 28.3979C58.6894 28.3024 60.3826 27.4106 61.3624 26.1778C60.4405 25.3691 59.0795 25.5953 58.0242 25.7706L58.0187 25.7716C56.8415 25.9673 55.5554 26.3941 54.4756 27.0514C54.5784 26.9704 54.6785 26.8848 54.7765 26.795C55.8264 26.0464 56.7945 25.2091 57.6735 24.296C57.6858 24.3082 57.698 24.3202 57.7103 24.3321C58.5654 25.1853 59.8066 24.9602 60.7762 24.681C62.0766 24.3065 63.4247 23.1768 64.0708 21.8798C63.0693 21.3188 61.8723 21.781 60.9416 22.1468C59.9183 22.5485 58.8364 23.1913 58.0044 24.0108C58.0902 23.9026 58.1726 23.7894 58.2502 23.6723C59.023 22.7997 59.7188 21.8652 60.3302 20.8793L60.3568 20.8957L60.3636 20.9C61.3297 21.5218 62.4245 21.0703 63.2919 20.6262C64.4691 20.0238 65.4155 18.6996 65.824 17.3975C64.7796 17.063 63.7481 17.7195 62.946 18.2395C62.0677 18.8084 61.1785 19.62 60.5685 20.5508C60.6134 20.459 60.6557 20.365 60.6945 20.2693C61.2807 19.2465 61.7784 18.1728 62.1814 17.059L62.2025 17.0661L62.206 17.0674C63.0849 17.4002 64.0633 16.8809 64.7013 16.3114C65.5877 15.5195 66.2134 14.3019 66.3598 13.1124C65.4434 12.9936 64.5794 13.7028 63.9891 14.3076C63.3096 15.0043 62.6989 15.8276 62.3237 16.7423C62.3516 16.6425 62.3755 16.5411 62.3952 16.4386C62.7363 15.3923 62.9951 14.3132 63.1653 13.2101L63.1911 13.2135C64.1171 13.3634 64.9736 12.6588 65.4856 11.9749C66.2059 11.0125 66.577 9.68055 66.4837 8.47326C65.5585 8.53808 64.8531 9.41883 64.3962 10.1314C63.8665 10.9567 63.4274 11.8907 63.2354 12.868C63.2415 12.7898 63.2449 12.7112 63.2463 12.6324C63.3872 11.5094 63.4376 10.3635 63.3913 9.20348C64.337 9.17032 65.0376 8.29229 65.3985 7.51367C65.9139 6.4 65.9969 4.99214 65.6531 3.80576C64.7523 4.05856 64.2499 5.09161 63.9537 5.88691C63.6119 6.80388 63.3736 7.80412 63.3716 8.79844C63.3225 7.96426 63.2231 7.12341 63.0727 6.27909Z" fill="#868C98"/>
</g>
<defs>
<clipPath id="clip0">
<rect width="66.7234" height="32" fill="white"/>
</clipPath>
</defs>
</svg>
